<svg viewBox="0 0 1000 800" xmlns="http://www.w3.org/2000/svg">
  <defs>
    <linearGradient id="bgGrad" x1="0%" y1="0%" x2="100%" y2="100%">
      <stop offset="0%" style="stop-color:#0f172a;stop-opacity:1" />
      <stop offset="100%" style="stop-color:#020617;stop-opacity:1" />
    </linearGradient>
    <filter id="glow">
      <feGaussianBlur stdDeviation="2.5" result="coloredBlur"/>
      <feMerge><feMergeNode in="coloredBlur"/><feMergeNode in="SourceGraphic"/></feMerge>
    </filter>
  </defs>
  <rect width="1000" height="800" fill="url(#bgGrad)" />
  <g stroke="#1e293b" stroke-width="1" stroke-dasharray="4">
    <line x1="-4.52911" y1="0" x2="-4.52911" y2="800" />
    <text x="-2.52911" y="790" fill="#64748b" font-size="10" font-family="sans-serif">-67°</text>
    <line x1="94.0027" y1="0" x2="94.0027" y2="800" />
    <text x="96.0027" y="790" fill="#64748b" font-size="10" font-family="sans-serif">-55°</text>
    <line x1="192.535" y1="0" x2="192.535" y2="800" />
    <text x="194.535" y="790" fill="#64748b" font-size="10" font-family="sans-serif">-43°</text>
    <line x1="291.066" y1="0" x2="291.066" y2="800" />
    <text x="293.066" y="790" fill="#64748b" font-size="10" font-family="sans-serif">-31°</text>
    <line x1="389.598" y1="0" x2="389.598" y2="800" />
    <text x="391.598" y="790" fill="#64748b" font-size="10" font-family="sans-serif">-19°</text>
    <line x1="488.13" y1="0" x2="488.13" y2="800" />
    <text x="490.13" y="790" fill="#64748b" font-size="10" font-family="sans-serif">-7°</text>
    <line x1="586.662" y1="0" x2="586.662" y2="800" />
    <text x="588.662" y="790" fill="#64748b" font-size="10" font-family="sans-serif">5°</text>
    <line x1="685.194" y1="0" x2="685.194" y2="800" />
    <text x="687.194" y="790" fill="#64748b" font-size="10" font-family="sans-serif">17°</text>
    <line x1="783.726" y1="0" x2="783.726" y2="800" />
    <text x="785.726" y="790" fill="#64748b" font-size="10" font-family="sans-serif">29°</text>
    <line x1="882.257" y1="0" x2="882.257" y2="800" />
    <text x="884.257" y="790" fill="#64748b" font-size="10" font-family="sans-serif">41°</text>
    <line x1="980.789" y1="0" x2="980.789" y2="800" />
    <text x="982.789" y="790" fill="#64748b" font-size="10" font-family="sans-serif">53°</text>
    <line x1="0" y1="804.538" x2="1000" y2="804.538" />
    <text x="5" y="802.538" fill="#64748b" font-size="10" font-family="sans-serif">-40°</text>
    <line x1="0" y1="723.435" x2="1000" y2="723.435" />
    <text x="5" y="721.435" fill="#64748b" font-size="10" font-family="sans-serif">-27°</text>
    <line x1="0" y1="642.331" x2="1000" y2="642.331" />
    <text x="5" y="640.331" fill="#64748b" font-size="10" font-family="sans-serif">-14°</text>
    <line x1="0" y1="561.227" x2="1000" y2="561.227" />
    <text x="5" y="559.227" fill="#64748b" font-size="10" font-family="sans-serif">-1°</text>
    <line x1="0" y1="480.124" x2="1000" y2="480.124" />
    <text x="5" y="478.124" fill="#64748b" font-size="10" font-family="sans-serif">12°</text>
    <line x1="0" y1="399.02" x2="1000" y2="399.02" />
    <text x="5" y="397.02" fill="#64748b" font-size="10" font-family="sans-serif">25°</text>
    <line x1="0" y1="317.917" x2="1000" y2="317.917" />
    <text x="5" y="315.917" fill="#64748b" font-size="10" font-family="sans-serif">38°</text>
    <line x1="0" y1="236.813" x2="1000" y2="236.813" />
    <text x="5" y="234.813" fill="#64748b" font-size="10" font-family="sans-serif">51°</text>
    <line x1="0" y1="155.709" x2="1000" y2="155.709" />
    <text x="5" y="153.709" fill="#64748b" font-size="10" font-family="sans-serif">64°</text>
    <line x1="0" y1="74.6058" x2="1000" y2="74.6058" />
    <text x="5" y="72.6058" fill="#64748b" font-size="10" font-family="sans-serif">77°</text>
  </g>
  <path fill="#ef4444" fill-opacity="0.1" d="M 699.44,246.399 696.388,246.756 693.354,247.11 690.337,247.46 687.337,247.806 684.354,248.15 681.387,248.49 678.435,248.826 675.499,249.16 672.578,249.49 669.672,249.817 666.78,250.141 663.902,250.462 661.037,250.78 658.186,251.095 655.348,251.407 652.522,251.716 649.709,252.023 646.908,252.326 644.119,252.627 641.342,252.926 638.575,253.221 635.82,253.514 633.076,253.804 630.342,254.092 627.619,254.377 624.905,254.659 622.202,254.939 619.508,255.217 616.823,255.492 614.148,255.765 611.482,256.035 608.825,256.303 606.176,256.568 603.536,256.832 600.904,257.093 598.28,257.351 595.663,257.608 593.055,257.862 590.454,258.114 587.861,258.364 585.274,258.611 582.695,258.857 580.123,259.1 577.557,259.341 574.998,259.58 572.446,259.817 569.899,260.052 567.359,260.285 564.825,260.516 562.297,260.745 559.774,260.971 557.257,261.196 554.745,261.419 552.239,261.64 549.738,261.859 547.242,262.076 544.751,262.291 542.264,262.504 539.783,262.715 537.306,262.925 534.833,263.132 532.365,263.338 529.901,263.542 527.441,263.744 524.985,263.944 522.533,264.142 520.084,264.339 517.64,264.533 515.199,264.726 512.761,264.917 510.327,265.106 507.896,265.294 505.468,265.48 503.043,265.664 500.621,265.846 498.202,266.027 495.785,266.205 493.372,266.382 490.96,266.558 488.552,266.731 486.145,266.903 483.741,267.074 481.339,267.242 478.939,267.409 476.542,267.574 474.146,267.738 471.751,267.899 469.359,268.06 466.968,268.218 464.579,268.375 462.191,268.53 459.804,268.683 457.419,268.835 455.035,268.986 452.651,269.134 450.269,269.281 447.888,269.426 445.508,269.57 443.128,269.712 440.749,269.852 438.371,269.991 435.993,270.128 433.615,270.264 431.238,270.398 428.861,270.53 426.484,270.661 424.107,270.79 421.73,270.917 419.353,271.043 416.976,271.167 414.598,271.29 412.22,271.411 409.841,271.53 407.462,271.648 405.083,271.764 402.702,271.878 400.321,271.991 397.938,272.103 395.555,272.212 393.171,272.32 390.785,272.427 388.398,272.531 386.01,272.634 383.62,272.736 381.229,272.836 378.836,272.934 376.442,273.031 374.045,273.125 371.647,273.219 369.246,273.31 366.844,273.4 364.439,273.489 362.032,273.575 359.622,273.66 357.21,273.744 354.795,273.825 352.378,273.905 349.958,273.983 347.535,274.06 345.108,274.135 342.679,274.208 340.247,274.28 337.811,274.349 335.371,274.417 332.928,274.484 330.482,274.548 328.031,274.611 325.577,274.672 323.119,274.731 320.656,274.789 318.19,274.844 315.718,274.898 313.243,274.95 310.762,275.001 308.277,275.049 305.787,275.096 303.292,275.14 300.792,275.183 298.286,275.224 295.776,275.264 293.259,275.301 290.737,275.336 288.209,275.37 285.674,275.401 283.134,275.431 280.587,275.458 278.034,275.484 275.474,275.508 272.908,275.529 270.334,275.549 267.753,275.566 265.165,275.582 262.569,275.595 259.966,275.607 257.354,275.616 254.735,275.623 252.107,275.628 249.471,275.63 246.826,275.631 244.172,275.629 241.509,275.625 238.837,275.619 236.155,275.61 233.463,275.599 230.762,275.586 228.05,275.57 225.327,275.552 222.594,275.532 219.849,275.509 217.093,275.483 214.325,275.455 211.546,275.425 208.754,275.392 205.95,275.356 203.132,275.317 200.302,275.276 197.458,275.232 194.6,275.185 191.727,275.135 188.84,275.083 L 178.028,264.942 L 181.061,265.008 L 184.077,265.072 L 187.076,265.132 L 190.058,265.189 L 193.024,265.243 L 195.974,265.294 L 198.909,265.342 L 201.829,265.386 L 204.735,265.428 L 207.626,265.467 L 210.504,265.503 L 213.368,265.536 L 216.22,265.567 L 219.058,265.594 L 221.885,265.619 L 224.699,265.642 L 227.502,265.661 L 230.293,265.678 L 233.073,265.693 L 235.842,265.705 L 238.601,265.714 L 241.349,265.721 L 244.087,265.726 L 246.816,265.728 L 249.534,265.728 L 252.244,265.725 L 254.944,265.72 L 257.636,265.713 L 260.318,265.703 L 262.993,265.692 L 265.659,265.678 L 268.317,265.661 L 270.967,265.643 L 273.61,265.622 L 276.245,265.599 L 278.873,265.574 L 281.494,265.547 L 284.108,265.518 L 286.715,265.486 L 289.316,265.453 L 291.91,265.417 L 294.498,265.38 L 297.081,265.34 L 299.657,265.299 L 302.227,265.255 L 304.792,265.21 L 307.352,265.162 L 309.906,265.112 L 312.455,265.061 L 314.999,265.007 L 317.539,264.952 L 320.073,264.895 L 322.604,264.836 L 325.129,264.774 L 327.651,264.711 L 330.168,264.647 L 332.681,264.58 L 335.19,264.511 L 337.696,264.441 L 340.197,264.368 L 342.696,264.294 L 345.19,264.218 L 347.682,264.14 L 350.17,264.061 L 352.656,263.979 L 355.138,263.896 L 357.618,263.811 L 360.094,263.724 L 362.568,263.635 L 365.04,263.545 L 367.509,263.453 L 369.976,263.359 L 372.441,263.263 L 374.904,263.165 L 377.365,263.066 L 379.824,262.965 L 382.281,262.862 L 384.737,262.758 L 387.191,262.651 L 389.643,262.543 L 392.094,262.434 L 394.544,262.322 L 396.993,262.209 L 399.441,262.094 L 401.888,261.977 L 404.334,261.858 L 406.779,261.738 L 409.223,261.616 L 411.667,261.493 L 414.111,261.367 L 416.554,261.24 L 418.997,261.111 L 421.44,260.98 L 423.883,260.848 L 426.326,260.714 L 428.769,260.578 L 431.212,260.44 L 433.655,260.301 L 436.099,260.16 L 438.543,260.017 L 440.988,259.873 L 443.434,259.726 L 445.881,259.578 L 448.328,259.428 L 450.777,259.277 L 453.226,259.124 L 455.677,258.968 L 458.129,258.812 L 460.583,258.653 L 463.038,258.492 L 465.494,258.33 L 467.952,258.166 L 470.413,258.001 L 472.875,257.833 L 475.339,257.664 L 477.805,257.492 L 480.273,257.319 L 482.744,257.145 L 485.217,256.968 L 487.692,256.789 L 490.17,256.609 L 492.651,256.427 L 495.135,256.243 L 497.622,256.057 L 500.112,255.869 L 502.605,255.68 L 505.101,255.488 L 507.601,255.295 L 510.104,255.1 L 512.611,254.902 L 515.121,254.703 L 517.636,254.502 L 520.154,254.299 L 522.677,254.094 L 525.204,253.887 L 527.735,253.678 L 530.271,253.467 L 532.811,253.254 L 535.356,253.039 L 537.906,252.823 L 540.461,252.604 L 543.021,252.382 L 545.587,252.159 L 548.157,251.934 L 550.734,251.707 L 553.316,251.477 L 555.904,251.246 L 558.498,251.012 L 561.098,250.776 L 563.704,250.538 L 566.317,250.298 L 568.937,250.056 L 571.563,249.811 L 574.197,249.564 L 576.837,249.315 L 579.485,249.064 L 582.14,248.81 L 584.803,248.554 L 587.474,248.295 L 590.153,248.035 L 592.84,247.771 L 595.535,247.506 L 598.239,247.238 L 600.952,246.967 L 603.674,246.694 L 606.405,246.418 L 609.145,246.14 L 611.896,245.86 L 614.656,245.576 L 617.426,245.29 L 620.207,245.002 L 622.998,244.71 L 625.8,244.416 L 628.613,244.12 L 631.438,243.82 L 634.275,243.518 L 637.123,243.212 L 639.984,242.904 L 642.857,242.593 L 645.743,242.279 L 648.642,241.962 L 651.554,241.641 L 654.481,241.318 L 657.421,240.992 L 660.377,240.662 L 663.347,240.329 L 666.332,239.993 L 669.333,239.653 L 672.35,239.31 L 675.383,238.963 L 678.433,238.613 L 681.501,238.26 L 684.586,237.903 L 687.689,237.542 L 690.812,237.177 L 693.953,236.808 L 697.114,236.436 L 700.296,236.059 L 703.498,235.679 L 706.722,235.294 Z" />
  <polyline points="702.922,240.924 699.788,241.294 696.674,241.66 693.579,242.023 690.503,242.382 687.445,242.737 684.404,243.089 681.38,243.437 678.373,243.781 675.382,244.123 672.408,244.461 669.448,244.795 666.504,245.127 663.575,245.455 660.659,245.78 657.758,246.102 654.871,246.421 651.997,246.737 649.136,247.05 646.288,247.361 643.452,247.668 640.629,247.972 637.817,248.274 635.017,248.572 632.228,248.869 629.451,249.162 626.684,249.453 623.928,249.741 621.182,250.026 618.446,250.309 615.721,250.589 613.004,250.867 610.298,251.142 607.6,251.415 604.912,251.685 602.232,251.953 599.561,252.219 596.898,252.482 594.244,252.743 591.598,253.001 588.959,253.258 586.328,253.511 583.705,253.763 581.089,254.013 578.48,254.26 575.879,254.505 573.284,254.748 570.695,254.988 568.114,255.227 565.538,255.463 562.969,255.697 560.406,255.93 557.849,256.16 555.298,256.388 552.752,256.614 550.212,256.838 547.677,257.06 545.147,257.28 542.623,257.498 540.103,257.714 537.588,257.928 535.078,258.14 532.573,258.35 530.072,258.558 527.576,258.764 525.083,258.968 522.595,259.171 520.111,259.371 517.63,259.57 515.154,259.767 512.681,259.962 510.211,260.155 507.745,260.346 505.283,260.536 502.823,260.723 500.367,260.909 497.914,261.093 495.463,261.275 493.016,261.456 490.571,261.634 488.128,261.811 485.688,261.986 483.251,262.16 480.816,262.331 478.383,262.501 475.952,262.669 473.523,262.836 471.096,263 468.67,263.163 466.247,263.324 463.825,263.484 461.405,263.641 458.986,263.797 456.568,263.952 454.151,264.104 451.736,264.255 449.322,264.404 446.909,264.552 444.496,264.697 442.084,264.842 439.673,264.984 437.263,265.125 434.853,265.264 432.444,265.401 430.034,265.537 427.625,265.671 425.217,265.803 422.808,265.934 420.399,266.063 417.99,266.19 415.581,266.316 413.171,266.44 410.761,266.562 408.35,266.683 405.939,266.802 403.527,266.919 401.115,267.035 398.701,267.148 396.287,267.261 393.871,267.371 391.454,267.48 389.036,267.587 386.617,267.693 384.196,267.797 381.774,267.899 379.35,267.999 376.924,268.098 374.496,268.195 372.067,268.29 369.635,268.384 367.201,268.476 364.765,268.566 362.327,268.655 359.886,268.741 357.443,268.827 354.997,268.91 352.548,268.991 350.096,269.071 347.641,269.149 345.184,269.226 342.723,269.3 340.258,269.373 337.791,269.444 335.319,269.513 332.844,269.581 330.365,269.646 327.883,269.71 325.396,269.772 322.905,269.832 320.41,269.891 317.91,269.947 315.406,270.002 312.897,270.055 310.384,270.106 307.865,270.155 305.342,270.202 302.813,270.247 300.279,270.29 297.739,270.332 295.194,270.371 292.642,270.408 290.085,270.444 287.522,270.477 284.953,270.509 282.377,270.538 279.794,270.566 277.205,270.591 274.609,270.614 272.005,270.636 269.395,270.655 266.777,270.672 264.151,270.687 261.517,270.699 258.876,270.71 256.226,270.718 253.567,270.724 250.9,270.728 248.224,270.729 245.539,270.729 242.845,270.726 240.141,270.72 237.427,270.713 234.703,270.702 231.969,270.69 229.224,270.675 226.469,270.657 223.702,270.637 220.924,270.615 218.134,270.589 215.333,270.562 212.518,270.531 209.692,270.498 206.852,270.462 203.999,270.424 201.133,270.382 198.252,270.338 195.357,270.291 192.448,270.241 189.523,270.187 186.583,270.131 183.626,270.072 " fill="none" stroke="#ef4444" stroke-width="3" filter="url(#glow)" />
  <path fill="#06b6d4" fill-opacity="0.15" d="M 855.335,705.882 850.407,705.123 845.529,704.357 840.699,703.585 835.916,702.806 831.177,702.022 826.483,701.232 821.83,700.437 817.22,699.636 812.649,698.83 808.117,698.019 803.622,697.202 799.165,696.381 794.743,695.556 790.356,694.725 786.003,693.89 781.683,693.051 777.395,692.207 773.139,691.359 768.912,690.507 764.716,689.651 760.548,688.791 756.409,687.927 752.297,687.06 748.212,686.188 744.154,685.313 740.121,684.435 736.113,683.553 732.129,682.667 728.169,681.778 724.233,680.886 720.319,679.991 716.427,679.092 712.558,678.19 708.709,677.286 704.881,676.378 701.073,675.467 697.285,674.553 693.517,673.636 689.767,672.716 686.036,671.794 682.323,670.868 678.628,669.94 674.95,669.01 671.288,668.076 667.644,667.14 664.015,666.201 660.402,665.26 656.805,664.316 653.223,663.369 649.655,662.42 646.102,661.469 642.563,660.515 639.038,659.559 635.527,658.6 632.028,657.639 628.543,656.675 625.069,655.71 621.609,654.741 618.16,653.771 614.723,652.798 611.297,651.823 607.883,650.846 604.479,649.866 601.087,648.885 597.704,647.901 594.332,646.914 590.97,645.926 587.617,644.936 584.273,643.943 580.939,642.948 577.614,641.951 574.297,640.952 570.989,639.951 567.689,638.947 564.397,637.942 561.113,636.934 557.837,635.924 554.568,634.913 551.305,633.899 548.05,632.883 544.802,631.865 541.56,630.845 538.324,629.823 535.095,628.798 531.871,627.772 528.653,626.743 525.44,625.713 522.233,624.68 519.031,623.646 515.833,622.609 512.641,621.57 509.452,620.53 506.268,619.487 503.089,618.442 499.913,617.395 496.74,616.345 493.572,615.294 490.406,614.241 487.244,613.185 484.085,612.128 480.928,611.068 477.774,610.007 474.622,608.943 471.473,607.877 468.325,606.808 465.18,605.738 462.036,604.666 458.893,603.591 455.752,602.514 452.612,601.435 449.472,600.354 446.333,599.271 443.195,598.185 440.057,597.097 436.919,596.007 433.781,594.915 430.643,593.82 427.504,592.723 424.365,591.624 421.224,590.523 418.083,589.419 414.94,588.313 411.796,587.204 408.65,586.093 405.502,584.98 402.352,583.864 399.2,582.746 396.046,581.625 392.888,580.502 389.728,579.376 386.564,578.248 383.397,577.117 380.227,575.984 377.052,574.848 373.874,573.71 370.691,572.569 367.504,571.425 364.312,570.279 361.115,569.129 357.913,567.978 354.705,566.823 351.492,565.665 348.272,564.505 345.046,563.342 341.814,562.176 338.575,561.007 335.329,559.835 332.076,558.66 328.815,557.482 325.546,556.301 322.269,555.117 318.983,553.929 315.689,552.739 312.385,551.545 309.072,550.348 305.75,549.148 302.417,547.945 299.074,546.738 295.72,545.527 292.354,544.313 288.978,543.096 285.589,541.875 282.188,540.65 278.775,539.422 275.348,538.189 271.908,536.953 268.454,535.714 264.986,534.47 261.503,533.222 258.004,531.97 254.49,530.714 250.96,529.454 247.413,528.19 243.848,526.921 240.266,525.648 236.666,524.371 233.046,523.088 229.407,521.802 225.748,520.51 222.068,519.214 218.366,517.912 214.643,516.606 210.896,515.295 207.126,513.978 203.332,512.656 199.512,511.328 195.666,509.995 191.794,508.657 187.894,507.312 183.965,505.962 180.006,504.605 176.017,503.243 171.996,501.874 167.942,500.498 163.853,499.116 159.73,497.727 155.57,496.33 151.372,494.927 147.135,493.516 142.857,492.098 L 146.014,487.014 L 150.3,488.436 L 154.546,489.85 L 158.751,491.257 L 162.919,492.657 L 167.049,494.049 L 171.144,495.435 L 175.205,496.813 L 179.233,498.185 L 183.228,499.551 L 187.193,500.91 L 191.128,502.264 L 195.034,503.611 L 198.912,504.952 L 202.762,506.287 L 206.587,507.617 L 210.386,508.942 L 214.161,510.261 L 217.912,511.574 L 221.64,512.883 L 225.346,514.186 L 229.03,515.484 L 232.693,516.778 L 236.335,518.066 L 239.958,519.35 L 243.562,520.629 L 247.147,521.904 L 250.715,523.174 L 254.265,524.44 L 257.798,525.702 L 261.315,526.959 L 264.815,528.212 L 268.301,529.461 L 271.771,530.706 L 275.227,531.946 L 278.669,533.183 L 282.098,534.416 L 285.513,535.646 L 288.915,536.871 L 292.305,538.093 L 295.683,539.311 L 299.049,540.526 L 302.404,541.736 L 305.749,542.944 L 309.082,544.148 L 312.406,545.349 L 315.719,546.546 L 319.023,547.74 L 322.318,548.93 L 325.604,550.118 L 328.881,551.302 L 332.15,552.483 L 335.411,553.661 L 338.664,554.836 L 341.91,556.008 L 345.149,557.177 L 348.38,558.342 L 351.606,559.505 L 354.824,560.665 L 358.037,561.822 L 361.244,562.977 L 364.445,564.128 L 367.641,565.277 L 370.832,566.422 L 374.018,567.566 L 377.199,568.706 L 380.376,569.844 L 383.549,570.979 L 386.718,572.111 L 389.883,573.241 L 393.045,574.368 L 396.203,575.493 L 399.359,576.615 L 402.511,577.734 L 405.661,578.852 L 408.809,579.966 L 411.954,581.078 L 415.097,582.188 L 418.239,583.295 L 421.379,584.4 L 424.518,585.502 L 427.655,586.602 L 430.791,587.7 L 433.927,588.796 L 437.062,589.889 L 440.197,590.979 L 443.331,592.068 L 446.466,593.154 L 449.6,594.238 L 452.735,595.319 L 455.871,596.399 L 459.007,597.476 L 462.145,598.551 L 465.283,599.623 L 468.423,600.694 L 471.564,601.762 L 474.707,602.828 L 477.852,603.892 L 480.999,604.953 L 484.148,606.013 L 487.3,607.07 L 490.454,608.126 L 493.611,609.179 L 496.771,610.23 L 499.935,611.278 L 503.102,612.325 L 506.272,613.369 L 509.446,614.412 L 512.624,615.452 L 515.807,616.49 L 518.993,617.526 L 522.184,618.56 L 525.38,619.592 L 528.581,620.622 L 531.787,621.65 L 534.999,622.675 L 538.215,623.699 L 541.438,624.72 L 544.667,625.739 L 547.901,626.756 L 551.143,627.771 L 554.39,628.784 L 557.645,629.795 L 560.906,630.803 L 564.175,631.81 L 567.451,632.814 L 570.734,633.816 L 574.026,634.816 L 577.326,635.814 L 580.634,636.81 L 583.95,637.803 L 587.275,638.795 L 590.609,639.784 L 593.953,640.771 L 597.306,641.755 L 600.669,642.738 L 604.041,643.718 L 607.424,644.696 L 610.817,645.672 L 614.222,646.645 L 617.637,647.617 L 621.063,648.586 L 624.501,649.552 L 627.951,650.516 L 631.412,651.478 L 634.887,652.438 L 638.374,653.395 L 641.873,654.349 L 645.387,655.302 L 648.913,656.251 L 652.454,657.199 L 656.009,658.143 L 659.578,659.086 L 663.162,660.025 L 666.762,660.962 L 670.377,661.897 L 674.008,662.829 L 677.655,663.758 L 681.319,664.684 L 685,665.608 L 688.698,666.529 L 692.414,667.447 L 696.149,668.362 L 699.902,669.274 L 703.674,670.183 L 707.466,671.09 L 711.278,671.993 L 715.11,672.893 L 718.963,673.79 L 722.837,674.684 L 726.734,675.575 L 730.652,676.462 L 734.594,677.346 L 738.56,678.227 L 742.549,679.104 L 746.563,679.978 L 750.602,680.848 L 754.668,681.714 L 758.759,682.577 L 762.878,683.436 L 767.025,684.291 L 771.201,685.142 L 775.406,685.989 L 779.641,686.832 L 783.906,687.671 L 788.204,688.505 L 792.534,689.335 L 796.898,690.16 L 801.295,690.981 L 805.729,691.797 L 810.198,692.608 L 814.705,693.414 L 819.25,694.215 L 823.835,695.011 L 828.461,695.801 L 833.128,696.586 L 837.839,697.365 L 842.594,698.138 L 847.396,698.905 L 852.245,699.666 L 857.143,700.421 Z" />
  <polyline points="856.228,703.149 851.315,702.393 846.452,701.629 841.636,700.859 836.867,700.084 832.143,699.302 827.462,698.515 822.823,697.722 818.226,696.924 813.668,696.12 809.149,695.311 804.667,694.498 800.222,693.679 795.813,692.856 791.438,692.028 787.096,691.196 782.788,690.359 778.511,689.518 774.265,688.672 770.05,687.823 765.864,686.969 761.707,686.112 757.578,685.251 753.477,684.385 749.402,683.517 745.353,682.644 741.33,681.768 737.331,680.888 733.357,680.005 729.406,679.119 725.479,678.229 721.574,677.336 717.691,676.44 713.829,675.54 709.989,674.638 706.17,673.732 702.37,672.824 698.59,671.912 694.829,670.998 691.087,670.08 687.364,669.16 683.658,668.237 679.97,667.311 676.299,666.382 672.645,665.451 669.008,664.517 665.386,663.581 661.78,662.641 658.189,661.7 654.614,660.755 651.053,659.809 647.506,658.859 643.973,657.907 640.454,656.953 636.948,655.996 633.456,655.037 629.976,654.076 626.509,653.112 623.054,652.146 619.61,651.177 616.179,650.207 612.758,649.234 609.349,648.258 605.951,647.281 602.563,646.301 599.186,645.319 595.818,644.334 592.461,643.348 589.113,642.359 585.774,641.368 582.444,640.375 579.124,639.38 575.811,638.382 572.508,637.383 569.212,636.381 565.924,635.377 562.644,634.372 559.372,633.364 556.106,632.353 552.848,631.341 549.597,630.327 546.352,629.31 543.114,628.292 539.882,627.271 536.656,626.248 533.436,625.223 530.221,624.196 527.012,623.167 523.808,622.136 520.609,621.103 517.414,620.068 514.225,619.03 511.04,617.991 507.859,616.949 504.682,615.906 501.509,614.86 498.339,613.812 495.173,612.762 492.01,611.71 488.851,610.656 485.694,609.599 482.54,608.541 479.388,607.48 476.239,606.418 473.092,605.353 469.947,604.286 466.803,603.216 463.662,602.145 460.521,601.071 457.382,599.996 454.244,598.918 451.106,597.837 447.969,596.755 444.833,595.67 441.697,594.583 438.561,593.494 435.424,592.402 432.288,591.309 429.151,590.213 426.013,589.114 422.874,588.013 419.734,586.91 416.593,585.805 413.45,584.697 410.305,583.587 407.159,582.474 404.01,581.359 400.859,580.241 397.705,579.121 394.549,577.999 391.39,576.873 388.227,575.746 385.061,574.616 381.891,573.483 378.718,572.347 375.54,571.209 372.358,570.069 369.172,568.925 365.98,567.779 362.784,566.63 359.582,565.479 356.375,564.324 353.162,563.167 349.943,562.007 346.718,560.844 343.486,559.678 340.247,558.509 337.001,557.337 333.748,556.162 330.487,554.984 327.218,553.803 323.941,552.619 320.655,551.432 317.361,550.241 314.057,549.048 310.744,547.85 307.421,546.65 304.088,545.446 300.744,544.239 297.39,543.028 294.024,541.814 290.647,540.596 287.258,539.375 283.856,538.15 280.442,536.921 277.015,535.689 273.574,534.452 270.119,533.212 266.649,531.968 263.165,530.719 259.666,529.467 256.15,528.211 252.619,526.95 249.07,525.685 245.505,524.415 241.921,523.142 238.319,521.863 234.698,520.58 231.057,519.293 227.396,518 223.714,516.703 220.011,515.4 216.285,514.093 212.536,512.781 208.764,511.463 204.967,510.14 201.145,508.811 197.297,507.477 193.422,506.137 189.519,504.791 185.587,503.44 181.626,502.082 177.634,500.718 173.609,499.347 169.552,497.97 165.461,496.586 161.334,495.195 157.171,493.798 152.969,492.393 148.728,490.98 144.446,489.56 " fill="none" stroke="#06b6d4" stroke-width="3" filter="url(#glow)" />
  <circle cx="485.694" cy="609.599" r="5" fill="#06b6d4" stroke="white" stroke-width="1" />
  <text x="493.694" y="613.599" fill="white" font-family="sans-serif" font-size="12" font-weight="bold">TCA</text>
  <circle cx="439.673" cy="264.984" r="5" fill="#ef4444" stroke="white" stroke-width="1" />
  <text x="447.673" y="268.984" fill="white" font-family="sans-serif" font-size="12" font-weight="bold">TCA</text>
  <circle cx="440.316" cy="264.946" r="5" fill="#ef4444" stroke="white" stroke-width="1" />
  <text x="448.316" y="268.946" fill="white" font-family="sans-serif" font-size="12" font-weight="bold">-1σ Time</text>
  <circle cx="439.031" cy="265.022" r="5" fill="#ef4444" stroke="white" stroke-width="1" />
  <text x="447.031" y="269.022" fill="white" font-family="sans-serif" font-size="12" font-weight="bold">+1σ Time</text>
  <rect x="30" y="30" width="400" height="180" rx="15" fill="#1e293b" fill-opacity="0.6" stroke="#334155" stroke-width="1" />
  <text x="50" y="70" fill="white" font-family="sans-serif" font-size="24" font-weight="bold">Occultation Comparison</text>
  <text x="50" y="100" fill="#94a3b8" font-family="sans-serif" font-size="16">(50936) Nireus - TYC 5546-1581-1</text>
  <rect x="50" y="125" width="15" height="15" fill="#06b6d4" rx="3" />
  <text x="75" y="138" fill="white" font-family="sans-serif" font-size="14">AstDyn Nominal (JPL#105 - Africa)</text>
  <rect x="50" y="155" width="15" height="15" fill="#ef4444" rx="3" />
  <text x="75" y="168" fill="white" font-family="sans-serif" font-size="14">Occult4 Emulated (JPL#39 - Italy)</text>
  <text x="50" y="780" fill="#475569" font-family="sans-serif" font-size="12">Generated by AstDyn Engine v2.5 - ITALOccult System</text>
</svg>
