<svg viewBox="0 0 800 600" xmlns="http://www.w3.org/2000/svg" style="background:#0b0e14">
  <g stroke="#222" stroke-width="1">
    <line x1="4.0619" y1="0" x2="4.0619" y2="600" />
    <line x1="13.6193" y1="0" x2="13.6193" y2="600" />
    <line x1="23.1766" y1="0" x2="23.1766" y2="600" />
    <line x1="32.734" y1="0" x2="32.734" y2="600" />
    <line x1="42.2913" y1="0" x2="42.2913" y2="600" />
    <line x1="51.8487" y1="0" x2="51.8487" y2="600" />
    <line x1="61.406" y1="0" x2="61.406" y2="600" />
    <line x1="70.9634" y1="0" x2="70.9634" y2="600" />
    <line x1="80.5207" y1="0" x2="80.5207" y2="600" />
    <line x1="90.0781" y1="0" x2="90.0781" y2="600" />
    <line x1="99.6354" y1="0" x2="99.6354" y2="600" />
    <line x1="109.193" y1="0" x2="109.193" y2="600" />
    <line x1="118.75" y1="0" x2="118.75" y2="600" />
    <line x1="128.307" y1="0" x2="128.307" y2="600" />
    <line x1="137.865" y1="0" x2="137.865" y2="600" />
    <line x1="147.422" y1="0" x2="147.422" y2="600" />
    <line x1="156.98" y1="0" x2="156.98" y2="600" />
    <line x1="166.537" y1="0" x2="166.537" y2="600" />
    <line x1="176.094" y1="0" x2="176.094" y2="600" />
    <line x1="185.652" y1="0" x2="185.652" y2="600" />
    <line x1="195.209" y1="0" x2="195.209" y2="600" />
    <line x1="204.766" y1="0" x2="204.766" y2="600" />
    <line x1="214.324" y1="0" x2="214.324" y2="600" />
    <line x1="223.881" y1="0" x2="223.881" y2="600" />
    <line x1="233.438" y1="0" x2="233.438" y2="600" />
    <line x1="242.996" y1="0" x2="242.996" y2="600" />
    <line x1="252.553" y1="0" x2="252.553" y2="600" />
    <line x1="262.11" y1="0" x2="262.11" y2="600" />
    <line x1="271.668" y1="0" x2="271.668" y2="600" />
    <line x1="281.225" y1="0" x2="281.225" y2="600" />
    <line x1="290.782" y1="0" x2="290.782" y2="600" />
    <line x1="300.34" y1="0" x2="300.34" y2="600" />
    <line x1="309.897" y1="0" x2="309.897" y2="600" />
    <line x1="319.455" y1="0" x2="319.455" y2="600" />
    <line x1="329.012" y1="0" x2="329.012" y2="600" />
    <line x1="338.569" y1="0" x2="338.569" y2="600" />
    <line x1="348.127" y1="0" x2="348.127" y2="600" />
    <line x1="357.684" y1="0" x2="357.684" y2="600" />
    <line x1="367.241" y1="0" x2="367.241" y2="600" />
    <line x1="376.799" y1="0" x2="376.799" y2="600" />
    <line x1="386.356" y1="0" x2="386.356" y2="600" />
    <line x1="395.913" y1="0" x2="395.913" y2="600" />
    <line x1="405.471" y1="0" x2="405.471" y2="600" />
    <line x1="415.028" y1="0" x2="415.028" y2="600" />
    <line x1="424.585" y1="0" x2="424.585" y2="600" />
    <line x1="434.143" y1="0" x2="434.143" y2="600" />
    <line x1="443.7" y1="0" x2="443.7" y2="600" />
    <line x1="453.257" y1="0" x2="453.257" y2="600" />
    <line x1="462.815" y1="0" x2="462.815" y2="600" />
    <line x1="472.372" y1="0" x2="472.372" y2="600" />
    <line x1="481.93" y1="0" x2="481.93" y2="600" />
    <line x1="491.487" y1="0" x2="491.487" y2="600" />
    <line x1="501.044" y1="0" x2="501.044" y2="600" />
    <line x1="510.602" y1="0" x2="510.602" y2="600" />
    <line x1="520.159" y1="0" x2="520.159" y2="600" />
    <line x1="529.716" y1="0" x2="529.716" y2="600" />
    <line x1="539.274" y1="0" x2="539.274" y2="600" />
    <line x1="548.831" y1="0" x2="548.831" y2="600" />
    <line x1="558.388" y1="0" x2="558.388" y2="600" />
    <line x1="567.946" y1="0" x2="567.946" y2="600" />
    <line x1="577.503" y1="0" x2="577.503" y2="600" />
    <line x1="587.06" y1="0" x2="587.06" y2="600" />
    <line x1="596.618" y1="0" x2="596.618" y2="600" />
    <line x1="606.175" y1="0" x2="606.175" y2="600" />
    <line x1="615.732" y1="0" x2="615.732" y2="600" />
    <line x1="625.29" y1="0" x2="625.29" y2="600" />
    <line x1="634.847" y1="0" x2="634.847" y2="600" />
    <line x1="644.405" y1="0" x2="644.405" y2="600" />
    <line x1="653.962" y1="0" x2="653.962" y2="600" />
    <line x1="663.519" y1="0" x2="663.519" y2="600" />
    <line x1="673.077" y1="0" x2="673.077" y2="600" />
    <line x1="682.634" y1="0" x2="682.634" y2="600" />
    <line x1="692.191" y1="0" x2="692.191" y2="600" />
    <line x1="701.749" y1="0" x2="701.749" y2="600" />
    <line x1="711.306" y1="0" x2="711.306" y2="600" />
    <line x1="720.863" y1="0" x2="720.863" y2="600" />
    <line x1="730.421" y1="0" x2="730.421" y2="600" />
    <line x1="739.978" y1="0" x2="739.978" y2="600" />
    <line x1="749.535" y1="0" x2="749.535" y2="600" />
    <line x1="759.093" y1="0" x2="759.093" y2="600" />
    <line x1="768.65" y1="0" x2="768.65" y2="600" />
    <line x1="778.207" y1="0" x2="778.207" y2="600" />
    <line x1="787.765" y1="0" x2="787.765" y2="600" />
    <line x1="797.322" y1="0" x2="797.322" y2="600" />
    <line x1="0" y1="657.687" x2="800" y2="657.687" />
    <line x1="0" y1="586.302" x2="800" y2="586.302" />
    <line x1="0" y1="514.918" x2="800" y2="514.918" />
    <line x1="0" y1="443.533" x2="800" y2="443.533" />
    <line x1="0" y1="372.148" x2="800" y2="372.148" />
    <line x1="0" y1="300.764" x2="800" y2="300.764" />
    <line x1="0" y1="229.379" x2="800" y2="229.379" />
    <line x1="0" y1="157.995" x2="800" y2="157.995" />
    <line x1="0" y1="86.61" x2="800" y2="86.61" />
    <line x1="0" y1="15.2254" x2="800" y2="15.2254" />
  </g>
  <path fill="#ff4444" fill-opacity="0.15" d="M 699.216,196.296 695.664,200.382 692.132,204.427 688.62,208.432 685.129,212.398 681.656,216.325 678.203,220.215 674.767,224.066 671.35,227.881 667.95,231.66 664.567,235.402 661.201,239.11 657.851,242.783 654.517,246.421 651.198,250.026 647.894,253.598 644.605,257.137 641.331,260.643 638.071,264.118 634.824,267.561 631.591,270.972 628.372,274.353 625.165,277.704 621.97,281.025 618.788,284.316 615.618,287.577 612.46,290.81 609.313,294.014 606.177,297.19 603.053,300.338 599.939,303.458 596.835,306.551 593.742,309.616 590.659,312.655 587.586,315.667 584.522,318.653 581.468,321.612 578.423,324.546 575.387,327.455 572.36,330.338 569.341,333.196 566.331,336.029 563.329,338.837 560.334,341.621 557.348,344.381 554.37,347.116 551.398,349.828 548.435,352.516 545.478,355.18 542.528,357.822 539.585,360.44 536.649,363.035 533.719,365.608 530.796,368.157 527.878,370.685 524.967,373.19 522.062,375.673 519.162,378.134 516.268,380.573 513.38,382.99 510.496,385.386 507.618,387.76 504.745,390.113 501.877,392.444 499.014,394.755 496.155,397.044 493.301,399.313 490.451,401.561 487.606,403.788 484.764,405.995 481.927,408.182 479.094,410.347 476.264,412.493 473.438,414.619 470.615,416.724 467.796,418.81 464.981,420.875 462.168,422.921 459.359,424.947 456.552,426.954 453.748,428.94 450.947,430.908 448.149,432.855 445.353,434.784 442.56,436.693 439.769,438.583 436.98,440.453 434.193,442.305 431.408,444.137 428.625,445.951 425.844,447.745 423.065,449.52 420.287,451.277 417.51,453.014 414.735,454.733 411.961,456.433 409.189,458.114 406.417,459.777 403.646,461.421 400.877,463.046 398.107,464.652 395.339,466.24 392.571,467.81 389.804,469.36 387.037,470.892 384.27,472.406 381.503,473.901 378.736,475.378 375.97,476.836 373.203,478.275 370.436,479.696 367.668,481.099 364.9,482.483 362.132,483.848 359.362,485.195 356.593,486.524 353.822,487.834 351.05,489.125 348.277,490.398 345.503,491.653 342.728,492.888 339.951,494.106 337.173,495.304 334.393,496.484 331.611,497.645 328.828,498.788 326.043,499.912 323.255,501.017 320.466,502.103 317.674,503.17 314.88,504.219 312.083,505.248 309.284,506.259 306.483,507.25 303.678,508.223 300.87,509.176 298.06,510.11 295.246,511.025 292.429,511.92 289.608,512.796 286.784,513.653 283.957,514.49 281.125,515.308 278.29,516.106 275.451,516.884 272.607,517.642 269.759,518.38 266.907,519.099 264.05,519.797 261.189,520.475 258.323,521.133 255.452,521.77 252.575,522.387 249.694,522.983 246.806,523.558 243.914,524.113 241.016,524.646 238.111,525.159 235.201,525.65 232.285,526.12 229.362,526.568 226.433,526.994 223.497,527.399 220.555,527.782 217.605,528.142 214.648,528.481 211.684,528.797 208.712,529.09 205.732,529.36 202.745,529.607 199.749,529.831 196.745,530.032 193.732,530.209 190.711,530.363 187.681,530.492 184.641,530.597 181.592,530.677 178.534,530.733 175.465,530.764 172.387,530.769 169.298,530.749 166.198,530.703 163.088,530.632 159.966,530.533 156.833,530.409 153.688,530.257 150.531,530.078 147.362,529.871 144.181,529.636 140.986,529.373 137.778,529.082 134.557,528.761 131.321,528.411 128.072,528.031 124.807,527.621 121.528,527.18 118.234,526.708 114.923,526.204 111.596,525.668 108.253,525.1 104.893,524.499 L 92.3077,408.462 L 95.8383,409.226 L 99.3485,409.953 L 102.839,410.642 L 106.31,411.294 L 109.762,411.911 L 113.196,412.492 L 116.612,413.038 L 120.011,413.55 L 123.393,414.028 L 126.759,414.473 L 130.109,414.885 L 133.443,415.265 L 136.762,415.613 L 140.066,415.93 L 143.356,416.216 L 146.632,416.471 L 149.894,416.696 L 153.143,416.892 L 156.378,417.058 L 159.602,417.195 L 162.813,417.304 L 166.011,417.384 L 169.199,417.436 L 172.374,417.461 L 175.539,417.458 L 178.693,417.428 L 181.836,417.371 L 184.968,417.288 L 188.091,417.179 L 191.204,417.044 L 194.307,416.883 L 197.401,416.696 L 200.486,416.484 L 203.562,416.247 L 206.629,415.986 L 209.688,415.7 L 212.739,415.389 L 215.781,415.054 L 218.816,414.696 L 221.843,414.313 L 224.863,413.907 L 227.876,413.477 L 230.881,413.024 L 233.88,412.548 L 236.872,412.049 L 239.858,411.528 L 242.837,410.983 L 245.81,410.416 L 248.777,409.827 L 251.738,409.215 L 254.694,408.582 L 257.644,407.926 L 260.589,407.248 L 263.529,406.549 L 266.464,405.828 L 269.394,405.086 L 272.319,404.322 L 275.24,403.537 L 278.156,402.73 L 281.068,401.903 L 283.976,401.054 L 286.88,400.184 L 289.78,399.294 L 292.676,398.382 L 295.569,397.45 L 298.459,396.498 L 301.345,395.524 L 304.228,394.53 L 307.107,393.516 L 309.984,392.481 L 312.859,391.426 L 315.73,390.351 L 318.599,389.255 L 321.466,388.139 L 324.33,387.003 L 327.192,385.847 L 330.052,384.67 L 332.91,383.474 L 335.767,382.258 L 338.621,381.021 L 341.475,379.765 L 344.326,378.489 L 347.177,377.192 L 350.026,375.876 L 352.874,374.54 L 355.721,373.184 L 358.567,371.809 L 361.412,370.413 L 364.257,368.998 L 367.101,367.562 L 369.945,366.107 L 372.789,364.632 L 375.632,363.137 L 378.475,361.623 L 381.319,360.088 L 384.162,358.534 L 387.006,356.959 L 389.85,355.365 L 392.695,353.751 L 395.54,352.116 L 398.386,350.462 L 401.233,348.788 L 404.081,347.094 L 406.929,345.38 L 409.779,343.645 L 412.63,341.891 L 415.483,340.116 L 418.337,338.321 L 421.193,336.506 L 424.051,334.67 L 426.91,332.814 L 429.771,330.938 L 432.635,329.041 L 435.5,327.123 L 438.368,325.185 L 441.239,323.227 L 444.112,321.247 L 446.988,319.247 L 449.866,317.226 L 452.748,315.184 L 455.632,313.121 L 458.52,311.036 L 461.411,308.931 L 464.306,306.804 L 467.204,304.656 L 470.106,302.486 L 473.011,300.295 L 475.921,298.082 L 478.834,295.847 L 481.752,293.591 L 484.675,291.312 L 487.601,289.011 L 490.533,286.688 L 493.469,284.343 L 496.41,281.975 L 499.357,279.584 L 502.308,277.171 L 505.265,274.735 L 508.227,272.276 L 511.195,269.793 L 514.169,267.287 L 517.149,264.758 L 520.135,262.205 L 523.128,259.629 L 526.126,257.028 L 529.132,254.403 L 532.144,251.754 L 535.164,249.08 L 538.19,246.382 L 541.224,243.658 L 544.265,240.91 L 547.314,238.136 L 550.371,235.337 L 553.437,232.512 L 556.51,229.661 L 559.592,226.784 L 562.682,223.88 L 565.782,220.95 L 568.891,217.993 L 572.009,215.008 L 575.136,211.997 L 578.274,208.957 L 581.421,205.89 L 584.579,202.794 L 587.747,199.67 L 590.926,196.517 L 594.116,193.334 L 597.317,190.122 L 600.53,186.881 L 603.754,183.609 L 606.991,180.307 L 610.24,176.974 L 613.501,173.609 L 616.776,170.213 L 620.064,166.785 L 623.365,163.325 L 626.681,159.831 L 630.01,156.305 L 633.355,152.745 L 636.714,149.15 L 640.088,145.521 L 643.479,141.857 L 646.885,138.157 L 650.308,134.421 L 653.747,130.649 L 657.204,126.839 L 660.679,122.991 L 664.172,119.105 L 667.684,115.18 L 671.214,111.215 L 674.765,107.21 L 678.335,103.164 L 681.926,99.0764 L 685.539,94.9463 L 689.173,90.773 L 692.829,86.5558 L 696.509,82.2939 L 700.212,77.9863 L 703.94,73.6322 L 707.692,69.2308 Z" />
  <polyline points="703.269,133.647 699.621,137.882 695.997,142.073 692.394,146.222 688.814,150.328 685.254,154.392 681.714,158.416 678.195,162.4 674.695,166.344 671.214,170.249 667.751,174.117 664.307,177.946 660.88,181.739 657.47,185.495 654.077,189.216 650.7,192.901 647.339,196.551 643.994,200.166 640.664,203.748 637.349,207.296 634.048,210.812 630.761,214.294 627.489,217.745 624.23,221.164 620.984,224.551 617.751,227.908 614.53,231.234 611.322,234.529 608.126,237.795 604.942,241.031 601.769,244.239 598.608,247.417 595.457,250.567 592.317,253.688 589.188,256.782 586.069,259.847 582.96,262.886 579.861,265.897 576.771,268.882 573.691,271.84 570.62,274.771 567.558,277.677 564.504,280.556 561.459,283.41 558.423,286.239 555.394,289.042 552.374,291.821 549.361,294.575 546.356,297.304 543.358,300.009 540.368,302.689 537.385,305.346 534.408,307.979 531.439,310.588 528.475,313.174 525.519,315.737 522.568,318.276 519.624,320.793 516.685,323.286 513.753,325.758 510.826,328.206 507.904,330.632 504.988,333.036 502.077,335.418 499.171,337.778 496.27,340.116 493.374,342.433 490.482,344.728 487.595,347.001 484.712,349.253 481.834,351.484 478.96,353.693 476.089,355.882 473.223,358.05 470.36,360.196 467.501,362.322 464.645,364.428 461.793,366.513 458.944,368.577 456.098,370.621 453.255,372.645 450.415,374.648 447.578,376.631 444.744,378.594 441.912,380.537 439.082,382.46 436.255,384.364 433.43,386.247 430.607,388.11 427.786,389.954 424.967,391.778 422.15,393.583 419.334,395.368 416.52,397.133 413.707,398.879 410.896,400.605 408.086,402.312 405.277,404 402.469,405.668 399.662,407.317 396.855,408.946 394.05,410.557 391.245,412.148 388.44,413.72 385.636,415.272 382.832,416.806 380.028,418.32 377.224,419.815 374.42,421.291 371.616,422.748 368.812,424.185 366.007,425.604 363.202,427.003 360.396,428.383 357.59,429.744 354.782,431.086 351.974,432.409 349.165,433.713 346.354,434.997 343.543,436.262 340.73,437.508 337.915,438.735 335.099,439.942 332.281,441.13 329.462,442.299 326.64,443.448 323.817,444.578 320.991,445.688 318.163,446.779 315.333,447.851 312.5,448.903 309.664,449.935 306.826,450.948 303.985,451.941 301.141,452.914 298.294,453.867 295.444,454.801 292.59,455.714 289.733,456.607 286.872,457.481 284.007,458.334 281.139,459.167 278.267,459.979 275.39,460.771 272.509,461.543 269.624,462.294 266.734,463.024 263.84,463.734 260.94,464.422 258.036,465.09 255.126,465.736 252.212,466.362 249.292,466.966 246.366,467.548 243.434,468.109 240.497,468.648 237.553,469.165 234.604,469.661 231.648,470.134 228.685,470.585 225.715,471.013 222.739,471.419 219.756,471.802 216.765,472.162 213.766,472.499 210.761,472.813 207.747,473.104 204.725,473.37 201.695,473.613 198.656,473.832 195.609,474.026 192.552,474.196 189.487,474.341 186.412,474.461 183.327,474.556 180.233,474.626 177.129,474.67 174.014,474.688 170.889,474.679 167.753,474.644 164.605,474.583 161.446,474.494 158.276,474.378 155.093,474.234 151.899,474.061 148.691,473.861 145.471,473.632 142.237,473.373 138.99,473.085 135.729,472.767 132.453,472.419 129.163,472.04 125.858,471.629 122.537,471.187 119.201,470.713 115.848,470.206 112.478,469.667 109.092,469.093 105.687,468.485 102.265,467.843 98.8237,467.165 " fill="none" stroke="#ff4444" stroke-width="2" />
  <circle cx="396.855" cy="408.946" r="4" fill="white" />
  <text x="404.855" y="412.946" fill="white" font-family="sans-serif" font-size="10">TCA</text>
  <circle cx="397.604" cy="408.514" r="4" fill="white" />
  <text x="405.604" y="412.514" fill="white" font-family="sans-serif" font-size="10">-1σ Time</text>
  <circle cx="396.107" cy="409.378" r="4" fill="white" />
  <text x="404.107" y="413.378" fill="white" font-family="sans-serif" font-size="10">+1σ Time</text>
  <rect x="20" y="20" width="250" height="80" rx="5" fill="#000" fill-opacity="0.7" />
  <text x="35" y="45" fill="white" font-family="sans-serif" font-size="14" font-weight="bold">AstDyn Occultation Map</text>
  <text x="35" y="65" fill="#ccc" font-family="sans-serif" font-size="12">Target: (50936) Nireus</text>
  <text x="35" y="83" fill="#f55" font-family="sans-serif" font-size="11">Uncertainty: ±1σ Corridor Shown</text>
</svg>
