<svg viewBox="0 0 800 600" xmlns="http://www.w3.org/2000/svg" style="background:#0b0e14">
  <polyline points="2656.93,1049.84 2627.01,1043.78 2597.38,1037.66 2568.05,1031.49 2538.99,1025.27 2510.21,1019.01 2481.7,1012.7 2453.44,1006.35 2425.44,999.948 2397.67,993.508 2370.14,987.027 2342.84,980.506 2315.77,973.945 2288.91,967.347 2262.25,960.712 2235.81,954.04 2209.56,947.333 2183.51,940.591 2157.65,933.816 2131.98,927.007 2106.48,920.166 2081.16,913.293 2056.01,906.39 2031.02,899.455 2006.2,892.491 1981.54,885.498 1957.03,878.476 1932.68,871.426 1908.47,864.348 1884.4,857.243 1860.48,850.111 1836.7,842.953 1813.04,835.77 1789.53,828.56 1766.13,821.326 1742.87,814.068 1719.72,806.785 1696.7,799.478 1673.79,792.148 1651,784.795 1628.32,777.418 1605.75,770.02 1583.29,762.599 1560.93,755.156 1538.67,747.691 1516.52,740.205 1494.46,732.698 1472.49,725.17 1450.62,717.621 1428.84,710.052 1407.15,702.463 1385.55,694.853 1364.03,687.224 1342.6,679.575 1321.25,671.907 1299.97,664.219 1278.78,656.512 1257.66,648.787 1236.62,641.042 1215.64,633.279 1194.74,625.498 1173.91,617.698 1153.15,609.88 1132.45,602.043 1111.81,594.189 1091.24,586.317 1070.73,578.427 1050.28,570.519 1029.89,562.594 1009.55,554.651 989.275,546.691 969.049,538.714 948.875,530.719 928.753,522.707 908.68,514.678 888.656,506.632 868.678,498.568 848.746,490.488 828.859,482.391 809.014,474.277 789.211,466.146 769.449,457.998 749.725,449.834 730.04,441.652 710.391,433.454 690.777,425.239 671.198,417.007 651.652,408.759 632.137,400.494 612.653,392.212 593.198,383.913 573.771,375.598 554.371,367.265 534.997,358.916 515.647,350.55 496.321,342.168 477.017,333.768 457.734,325.352 438.471,316.918 419.227,308.468 400,300 380.79,291.515 361.595,283.014 342.414,274.495 323.246,265.958 304.09,257.405 284.945,248.834 265.809,240.246 246.682,231.64 227.561,223.016 208.447,214.375 189.338,205.716 170.233,197.039 151.13,188.344 132.029,179.631 112.928,170.9 93.8256,162.151 74.7214,153.383 55.614,144.596 36.5022,135.792 17.3846,126.968 -1.7399,118.125 -20.8725,109.264 -40.0145,100.383 -59.167,91.4831 -78.3314,82.5637 -97.5088,73.6247 -116.701,64.666 -135.908,55.6874 -155.133,46.6887 -174.375,37.6698 -193.638,28.6306 -212.921,19.5707 -232.226,10.4901 -251.555,1.38852 -270.909,-7.73419 -290.29,-16.8782 -309.698,-26.0438 -329.136,-35.2312 -348.604,-44.4405 -368.105,-53.672 -387.639,-62.926 -407.209,-72.2026 -426.815,-81.5022 -446.46,-90.8248 -466.145,-100.171 -485.871,-109.541 -505.641,-118.934 -525.456,-128.352 -545.318,-137.795 -565.228,-147.262 -585.188,-156.754 -605.201,-166.272 -625.267,-175.816 -645.389,-185.385 -665.569,-194.981 -685.809,-204.604 -706.111,-214.253 -726.477,-223.931 -746.909,-233.636 -767.409,-243.369 -787.98,-253.131 -808.623,-262.922 -829.342,-272.742 -850.138,-282.592 -871.014,-292.473 -891.973,-302.384 -913.016,-312.327 -934.148,-322.301 -955.37,-332.308 -976.686,-342.347 -998.098,-352.42 -1019.61,-362.527 -1041.22,-372.668 -1062.94,-382.844 -1084.77,-393.056 -1106.71,-403.304 -1128.77,-413.589 -1150.95,-423.911 -1173.25,-434.272 -1195.67,-444.672 -1218.23,-455.112 -1240.93,-465.592 -1263.76,-476.114 -1286.74,-486.677 -1309.87,-497.284 -1333.15,-507.935 -1356.59,-518.631 -1380.2,-529.373 -1403.97,-540.161 -1427.92,-550.998 -1452.05,-561.883 -1476.37,-572.819 -1500.89,-583.806 -1525.6,-594.846 -1550.52,-605.94 -1575.66,-617.089 -1601.03,-628.295 -1626.62,-639.559 -1652.46,-650.883 -1678.54,-662.269 " fill="none" stroke="#ff4444" stroke-width="2" />
</svg>
