<svg viewBox="-1800 -900 3600 1800" xmlns="http://www.w3.org/2000/svg" style="background:#0f172a">
  <g fill="#1e293b" fill-opacity="0.7" stroke="#334155" stroke-width="1" transform="scale(10, -10)">
    <path d="M -17,14 L -13,14 L -5,35 L 30,32 L 32,30 L 51,12 L 45,0 L 40,-15 L 34,-34 L 18,-35 L -10,-15 L -14,5 L -17,14 Z" />
    <path d="M -10,36 L 0,55 L 20,70 L 60,75 L 100,75 L 170,70 L 180,60 L 150,30 L 120,10 L 100,20 L 80,10 L 60,20 L 40,25 L 10,35 L -5,36 Z" />
    <path d="M -160,70 L -100,75 L -60,50 L -80,20 L -100,10 L -80,-10 L -40,-20 L -50,-55 L -70,-55 L -80,-15 L -110,10 L -160,60 Z" />
    <path d="M 113,-15 L 150,-15 L 150,-40 L 120,-40 L 113,-30 Z" />
  </g>
  <path fill="#06b6d4" fill-opacity="0.12" d="M 334.225,241.865 328.221,240.648 322.278,239.42 316.393,238.183 310.565,236.935 304.792,235.678 299.073,234.412 293.405,233.137 287.787,231.853 282.218,230.561 276.697,229.261 271.222,227.952 265.791,226.636 260.404,225.313 255.06,223.981 249.757,222.643 244.493,221.298 239.269,219.945 234.084,218.586 228.935,217.22 223.823,215.848 218.745,214.469 213.703,213.085 208.694,211.694 203.717,210.297 198.773,208.894 193.86,207.486 188.977,206.072 184.124,204.653 179.3,203.228 174.504,201.798 169.737,200.362 164.996,198.922 160.281,197.476 155.593,196.025 150.93,194.57 146.291,193.11 141.677,191.644 137.086,190.175 132.518,188.7 127.973,187.221 123.45,185.738 118.948,184.25 114.467,182.758 110.007,181.262 105.567,179.761 101.147,178.256 96.7461,176.747 92.3639,175.234 88.0001,173.716 83.6543,172.195 79.3261,170.67 75.0151,169.141 70.7209,167.608 66.4431,166.071 62.1814,164.53 57.9353,162.985 53.7046,161.437 49.4889,159.885 45.2877,158.329 41.1009,156.77 36.928,155.206 32.7688,153.64 28.6228,152.069 24.4898,150.496 20.3695,148.918 16.2615,147.337 12.1656,145.753 8.08145,144.165 4.00875,142.573 -0.0527962,140.978 -4.10347,139.38 -8.14355,137.778 -12.1733,136.173 -16.1931,134.565 -20.2031,132.953 -24.2036,131.337 -28.1948,129.719 -32.1772,128.097 -36.1509,126.471 -40.1161,124.842 -44.0732,123.21 -48.0223,121.575 -51.9638,119.936 -55.8979,118.294 -59.8248,116.649 -63.7449,115 -67.6582,113.348 -71.5652,111.693 -75.4659,110.034 -79.3608,108.372 -83.2499,106.707 -87.1336,105.038 -91.012,103.366 -94.8855,101.691 -98.7542,100.012 -102.618,98.3304 -106.478,96.6451 -110.334,94.9564 -114.186,93.2644 -118.035,91.569 -121.88,89.8702 -125.722,88.168 -129.561,86.4624 -133.397,84.7534 -137.231,83.0409 -141.063,81.325 -144.893,79.6057 -148.721,77.8829 -152.548,76.1565 -156.373,74.4267 -160.197,72.6934 -164.021,70.9565 -167.843,69.2161 -171.666,67.4721 -175.488,65.7244 -179.311,63.9732 -183.134,62.2183 -186.957,60.4598 -190.781,58.6975 -194.607,56.9316 -198.433,55.1619 -202.262,53.3885 -206.092,51.6112 -209.924,49.8302 -213.758,48.0452 -217.595,46.2565 -221.435,44.4638 -225.278,42.6671 -229.124,40.8665 -232.974,39.0619 -236.827,37.2532 -240.685,35.4405 -244.547,33.6236 -248.414,31.8026 -252.286,29.9775 -256.163,28.148 -260.046,26.3143 -263.934,24.4763 -267.828,22.634 -271.729,20.7872 -275.636,18.936 -279.551,17.0803 -283.473,15.2201 -287.402,13.3553 -291.339,11.4858 -295.285,9.61168 -299.239,7.73278 -303.202,5.84908 -307.175,3.96052 -311.157,2.06704 -315.149,0.168587 -319.151,-1.7349 -323.164,-3.6435 -327.189,-5.55725 -331.224,-7.47625 -335.272,-9.40054 -339.332,-11.3302 -343.405,-13.2653 -347.491,-15.2059 -351.59,-17.1522 -355.703,-19.1041 -359.831,-21.0617 -363.974,-23.0252 -368.133,-24.9947 -372.307,-26.9701 -376.497,-28.9517 -380.705,-30.9394 -384.93,-32.9335 -389.173,-34.9339 -393.435,-36.9409 -397.716,-38.9545 -402.017,-40.9748 -406.338,-43.0019 -410.68,-45.036 -415.044,-47.0771 -419.431,-49.1255 -423.84,-51.1812 -428.273,-53.2443 -432.731,-55.3151 -437.214,-57.3936 -441.724,-59.48 -446.26,-61.5744 -450.824,-63.6771 -455.418,-65.7881 -460.04,-67.9077 -464.694,-70.036 -469.379,-72.1733 -474.097,-74.3196 -478.848,-76.4753 -483.635,-78.6405 -488.458,-80.8154 -493.318,-83.0003 -498.217,-85.1954 -503.156,-87.401 -508.137,-89.6173 -513.161,-91.8445 -518.229,-94.0831 -523.344,-96.3332 -528.506,-98.5953 -533.719,-100.87 L -529.875,-109.019 L -524.652,-106.739 L -519.48,-104.471 L -514.356,-102.215 L -509.278,-99.9712 L -504.246,-97.7386 L -499.256,-95.5172 L -494.309,-93.3066 L -489.402,-91.1067 L -484.534,-88.9171 L -479.704,-86.7376 L -474.91,-84.568 L -470.151,-82.4081 L -465.427,-80.2576 L -460.735,-78.1164 L -456.076,-75.9842 L -451.447,-73.8609 L -446.849,-71.7462 L -442.279,-69.6401 L -437.737,-67.5423 L -433.223,-65.4527 L -428.735,-63.3711 L -424.272,-61.2973 L -419.835,-59.2313 L -415.421,-57.1729 L -411.031,-55.1219 L -406.663,-53.0782 L -402.317,-51.0417 L -397.992,-49.0123 L -393.688,-46.9898 L -389.404,-44.9742 L -385.139,-42.9652 L -380.893,-40.9629 L -376.666,-38.9671 L -372.456,-36.9776 L -368.263,-34.9945 L -364.086,-33.0176 L -359.926,-31.0468 L -355.781,-29.0821 L -351.651,-27.1233 L -347.536,-25.1703 L -343.436,-23.2231 L -339.348,-21.2816 L -335.275,-19.3457 L -331.214,-17.4154 L -327.165,-15.4905 L -323.129,-13.571 L -319.104,-11.6568 L -315.09,-9.74792 L -311.087,-7.84421 L -307.095,-5.94561 L -303.113,-4.05209 L -299.141,-2.16356 L -295.178,-0.279984 L -291.224,1.59871 L -287.279,3.47257 L -283.342,5.34165 L -279.413,7.206 L -275.492,9.06569 L -271.579,10.9207 L -267.672,12.7712 L -263.773,14.6172 L -259.88,16.4587 L -255.993,18.2957 L -252.112,20.1284 L -248.236,21.9567 L -244.366,23.7807 L -240.501,25.6004 L -236.641,27.4159 L -232.786,29.2272 L -228.934,31.0343 L -225.087,32.8374 L -221.243,34.6363 L -217.403,36.4312 L -213.566,38.2221 L -209.732,40.009 L -205.9,41.7919 L -202.071,43.571 L -198.244,45.3461 L -194.419,47.1174 L -190.596,48.8848 L -186.774,50.6484 L -182.954,52.4082 L -179.134,54.1643 L -175.315,55.9166 L -171.497,57.6652 L -167.678,59.4102 L -163.86,61.1514 L -160.042,62.889 L -156.223,64.623 L -152.403,66.3534 L -148.583,68.0801 L -144.761,69.8033 L -140.938,71.523 L -137.114,73.2391 L -133.287,74.9516 L -129.459,76.6607 L -125.628,78.3663 L -121.794,80.0683 L -117.958,81.7669 L -114.119,83.4621 L -110.277,85.1538 L -106.431,86.842 L -102.581,88.5268 L -98.728,90.2082 L -94.8705,91.8862 L -91.0086,93.5607 L -87.1421,95.2319 L -83.2707,96.8997 L -79.3943,98.564 L -75.5125,100.225 L -71.6253,101.883 L -67.7322,103.537 L -63.8331,105.188 L -59.9277,106.835 L -56.0158,108.479 L -52.0972,110.12 L -48.1716,111.757 L -44.2387,113.391 L -40.2984,115.022 L -36.3503,116.649 L -32.3942,118.272 L -28.4298,119.893 L -24.4569,121.51 L -20.4753,123.123 L -16.4846,124.733 L -12.4846,126.34 L -8.47506,127.943 L -4.45565,129.543 L -0.426121,131.139 L 3.61381,132.732 L 7.66443,134.321 L 11.726,135.907 L 15.7989,137.489 L 19.8833,139.068 L 23.9795,140.643 L 28.0879,142.214 L 32.2088,143.782 L 36.3424,145.346 L 40.4891,146.907 L 44.6492,148.464 L 48.8231,150.017 L 53.011,151.567 L 57.2133,153.113 L 61.4304,154.655 L 65.6625,156.193 L 69.9101,157.727 L 74.1735,159.258 L 78.4531,160.784 L 82.7493,162.307 L 87.0623,163.825 L 91.3927,165.34 L 95.7409,166.85 L 100.107,168.357 L 104.492,169.859 L 108.896,171.357 L 113.319,172.851 L 117.762,174.34 L 122.225,175.825 L 126.709,177.306 L 131.215,178.782 L 135.742,180.254 L 140.291,181.721 L 144.863,183.183 L 149.458,184.641 L 154.077,186.094 L 158.721,187.542 L 163.389,188.985 L 168.083,190.423 L 172.803,191.856 L 177.55,193.284 L 182.324,194.706 L 187.126,196.124 L 191.956,197.535 L 196.817,198.941 L 201.707,200.342 L 206.628,201.737 L 211.58,203.126 L 216.565,204.509 L 221.583,205.886 L 226.635,207.256 L 231.722,208.62 L 236.844,209.978 L 242.004,211.329 L 247.2,212.674 L 252.436,214.011 L 257.711,215.341 L 263.027,216.664 L 268.385,217.98 L 273.786,219.288 L 279.232,220.588 L 284.722,221.88 L 290.26,223.164 L 295.846,224.44 L 301.481,225.707 L 307.168,226.965 L 312.907,228.213 L 318.701,229.453 L 324.551,230.682 L 330.459,231.902 L 336.426,233.111 Z" />
  <polyline points="335.312,237.485 329.326,236.272 323.401,235.048 317.534,233.814 311.724,232.571 305.968,231.318 300.265,230.056 294.614,228.785 289.012,227.506 283.46,226.218 277.954,224.921 272.494,223.617 267.078,222.305 261.706,220.985 256.376,219.658 251.087,218.324 245.838,216.983 240.628,215.634 235.456,214.279 230.32,212.917 225.221,211.549 220.157,210.175 215.126,208.794 210.13,207.407 205.165,206.014 200.233,204.616 195.332,203.211 190.46,201.801 185.619,200.386 180.806,198.965 176.021,197.538 171.264,196.107 166.534,194.67 161.83,193.228 157.152,191.781 152.499,190.33 147.87,188.873 143.265,187.412 138.684,185.946 134.126,184.475 129.59,183 125.076,181.52 120.583,180.036 116.111,178.547 111.66,177.054 107.228,175.557 102.816,174.056 98.4237,172.55 94.0496,171.04 89.6938,169.526 85.3558,168.009 81.0353,166.487 76.7319,164.961 72.4451,163.431 68.1746,161.897 63.9201,160.36 59.6811,158.819 55.4573,157.273 51.2484,155.725 47.054,154.172 42.8737,152.616 38.7073,151.056 34.5545,149.492 30.4148,147.925 26.288,146.354 22.1737,144.779 18.0717,143.201 13.9816,141.62 9.90324,140.035 5.83619,138.446 1.78021,136.854 -2.265,135.259 -6.29971,133.66 -10.3242,132.057 -14.3388,130.452 -18.3437,128.842 -22.3392,127.23 -26.3256,125.614 -30.3031,123.994 -34.272,122.371 -38.2326,120.745 -42.1851,119.116 -46.1298,117.483 -50.0669,115.846 -53.9966,114.207 -57.9193,112.564 -61.8352,110.918 -65.7445,109.268 -69.6474,107.615 -73.5443,105.958 -77.4353,104.299 -81.3206,102.636 -85.2006,100.969 -89.0754,99.2993 -92.9454,97.6261 -96.8106,95.9496 -100.671,94.2697 -104.528,92.5863 -108.381,90.8996 -112.229,89.2095 -116.075,87.516 -119.917,85.8191 -123.756,84.1188 -127.592,82.415 -131.426,80.7077 -135.257,78.997 -139.086,77.2828 -142.913,75.5652 -146.738,73.844 -150.563,72.1193 -154.385,70.391 -158.207,68.6592 -162.028,66.9238 -165.849,65.1849 -169.669,63.4423 -173.489,61.696 -177.31,59.9462 -181.131,58.1926 -184.952,56.4353 -188.774,54.6744 -192.598,52.9096 -196.423,51.1411 -200.249,49.3688 -204.078,47.5927 -207.908,45.8127 -211.741,44.0288 -215.577,42.241 -219.415,40.4492 -223.256,38.6535 -227.101,36.8538 -230.95,35.05 -234.802,33.2422 -238.659,31.4302 -242.52,29.6141 -246.386,27.7937 -250.257,25.9692 -254.133,24.1404 -258.014,22.3073 -261.902,20.4698 -265.796,18.6279 -269.696,16.7816 -273.603,14.9308 -277.517,13.0755 -281.438,11.2156 -285.367,9.35107 -289.304,7.48185 -293.249,5.6079 -297.203,3.72916 -301.166,1.84557 -305.138,-0.0429184 -309.12,-1.93637 -313.112,-3.83484 -317.115,-5.73839 -321.128,-7.64708 -325.153,-9.56099 -329.189,-11.4802 -333.237,-13.4047 -337.297,-15.3347 -341.37,-17.2701 -345.457,-19.2111 -349.557,-21.1578 -353.671,-23.1101 -357.799,-25.0683 -361.943,-27.0324 -366.102,-29.0024 -370.278,-30.9785 -374.469,-32.9608 -378.678,-34.9493 -382.904,-36.9442 -387.149,-38.9455 -391.412,-40.9534 -395.694,-42.968 -399.997,-44.9893 -404.32,-47.0175 -408.664,-49.0527 -413.029,-51.0951 -417.417,-53.1447 -421.829,-55.2017 -426.264,-57.2662 -430.724,-59.3384 -435.21,-61.4184 -439.722,-63.5063 -444.26,-65.6023 -448.827,-67.7067 -453.423,-69.8194 -458.048,-71.9408 -462.705,-74.071 -467.393,-76.2101 -472.114,-78.3585 -476.869,-80.5162 -481.659,-82.6835 -486.485,-84.8606 -491.349,-87.0478 -496.252,-89.2452 -501.195,-91.4532 -506.18,-93.6719 -511.208,-95.9018 -516.28,-98.143 -521.399,-100.396 -526.567,-102.661 -531.784,-104.938 " fill="none" stroke="#06b6d4" stroke-width="30" stroke-linecap="round" />
  <path fill="#ef4444" fill-opacity="0.12" d="M 670.261,-423.302 644.144,-419.434 622.701,-416.315 604.057,-413.651 587.33,-411.301 572.019,-409.184 557.807,-407.251 544.482,-405.467 531.888,-403.807 519.914,-402.254 508.47,-400.792 497.487,-399.411 486.911,-398.103 476.695,-396.858 466.802,-395.672 457.201,-394.539 447.863,-393.454 438.765,-392.414 429.889,-391.416 421.215,-390.457 412.729,-389.533 404.417,-388.643 396.266,-387.785 388.266,-386.957 380.407,-386.158 372.68,-385.385 365.077,-384.638 357.59,-383.915 350.214,-383.216 342.941,-382.538 335.767,-381.882 328.686,-381.247 321.693,-380.631 314.784,-380.034 307.954,-379.455 301.201,-378.894 294.52,-378.349 287.908,-377.822 281.361,-377.31 274.878,-376.813 268.454,-376.332 262.089,-375.865 255.778,-375.413 249.52,-374.974 243.313,-374.548 237.154,-374.136 231.042,-373.737 224.974,-373.35 218.95,-372.975 212.966,-372.612 207.022,-372.261 201.117,-371.922 195.247,-371.594 189.413,-371.276 183.613,-370.97 177.845,-370.674 172.109,-370.389 166.403,-370.113 160.725,-369.848 155.076,-369.593 149.453,-369.348 143.856,-369.112 138.284,-368.886 132.735,-368.669 127.21,-368.462 121.706,-368.263 116.224,-368.074 110.762,-367.893 105.319,-367.721 99.8949,-367.558 94.4887,-367.404 89.0996,-367.258 83.727,-367.121 78.37,-366.991 73.028,-366.871 67.7003,-366.758 62.3863,-366.654 57.0852,-366.557 51.7965,-366.469 46.5194,-366.388 41.2535,-366.316 35.9981,-366.251 30.7526,-366.194 25.5164,-366.145 20.2889,-366.104 15.0697,-366.07 9.85805,-366.044 4.65349,-366.025 -0.544538,-366.014 -5.73658,-366.011 -10.9232,-366.015 -16.1048,-366.026 -21.282,-366.046 -26.4554,-366.072 -31.6253,-366.106 -36.7924,-366.147 -41.9571,-366.196 -47.12,-366.252 -52.2815,-366.316 -57.4422,-366.387 -62.6026,-366.465 -67.7631,-366.551 -72.9242,-366.644 -78.0866,-366.745 -83.2506,-366.852 -88.4168,-366.968 -93.5856,-367.091 -98.7577,-367.221 -103.933,-367.358 -109.113,-367.504 -114.298,-367.656 -119.488,-367.816 -124.684,-367.984 -129.886,-368.159 -135.095,-368.342 -140.311,-368.533 -145.536,-368.731 -150.768,-368.937 -156.01,-369.151 -161.262,-369.372 -166.524,-369.602 -171.796,-369.839 -177.08,-370.084 -182.376,-370.337 -187.685,-370.599 -193.007,-370.868 -198.343,-371.146 -203.694,-371.432 -209.06,-371.727 -214.442,-372.029 -219.841,-372.341 -225.258,-372.661 -230.692,-372.99 -236.146,-373.327 -241.619,-373.674 -247.113,-374.029 -252.628,-374.394 -258.166,-374.767 -263.727,-375.151 -269.312,-375.543 -274.923,-375.946 -280.559,-376.358 -286.223,-376.78 -291.914,-377.212 -297.635,-377.654 -303.387,-378.107 -309.17,-378.571 -314.986,-379.045 -320.836,-379.53 -326.721,-380.026 -332.644,-380.534 -338.605,-381.053 -344.606,-381.585 -350.648,-382.128 -356.734,-382.684 -362.864,-383.253 -369.041,-383.834 -375.267,-384.429 -381.544,-385.037 -387.874,-385.66 -394.259,-386.297 -400.702,-386.948 -407.205,-387.615 -413.771,-388.298 -420.403,-388.996 -427.104,-389.712 -433.877,-390.444 -440.726,-391.194 -447.654,-391.963 -454.666,-392.751 -461.766,-393.559 -468.958,-394.387 -476.248,-395.236 -483.641,-396.108 -491.144,-397.004 -498.761,-397.924 -506.501,-398.869 -514.372,-399.842 -522.381,-400.842 -530.539,-401.873 -538.855,-402.935 -547.341,-404.031 -556.011,-405.163 -564.879,-406.333 -573.961,-407.543 -583.276,-408.798 -592.846,-410.101 -602.696,-411.455 -612.856,-412.866 -623.359,-414.339 -634.246,-415.881 -645.568,-417.5 -657.385,-419.206 -669.773,-421.011 -682.829,-422.931 -696.682,-424.987 -711.503,-427.207 -727.539,-429.63 -745.157,-432.314 -764.956,-435.356 -788.036,-438.93 L -902.543,-470.18 L -824.875,-458.052 L -792.038,-452.91 L -767.027,-449.023 L -746.008,-445.782 L -727.518,-442.955 L -710.814,-440.423 L -695.454,-438.115 L -681.153,-435.986 L -667.715,-434.004 L -654.994,-432.146 L -642.883,-430.393 L -631.297,-428.733 L -620.171,-427.154 L -609.45,-425.648 L -599.09,-424.207 L -589.054,-422.826 L -579.31,-421.498 L -569.832,-420.221 L -560.597,-418.989 L -551.585,-417.8 L -542.778,-416.65 L -534.161,-415.538 L -525.719,-414.46 L -517.442,-413.415 L -509.318,-412.401 L -501.337,-411.417 L -493.49,-410.46 L -485.769,-409.53 L -478.166,-408.625 L -470.676,-407.744 L -463.292,-406.886 L -456.007,-406.05 L -448.817,-405.235 L -441.718,-404.441 L -434.704,-403.666 L -427.771,-402.911 L -420.915,-402.173 L -414.133,-401.454 L -407.422,-400.751 L -400.778,-400.065 L -394.198,-399.395 L -387.679,-398.741 L -381.219,-398.101 L -374.815,-397.477 L -368.465,-396.867 L -362.167,-396.271 L -355.918,-395.688 L -349.717,-395.119 L -343.561,-394.563 L -337.449,-394.02 L -331.379,-393.489 L -325.349,-392.97 L -319.358,-392.464 L -313.404,-391.969 L -307.486,-391.485 L -301.603,-391.013 L -295.753,-390.551 L -289.934,-390.101 L -284.146,-389.661 L -278.388,-389.232 L -272.658,-388.813 L -266.955,-388.405 L -261.278,-388.006 L -255.627,-387.617 L -249.999,-387.238 L -244.395,-386.869 L -238.813,-386.509 L -233.252,-386.159 L -227.712,-385.818 L -222.192,-385.486 L -216.69,-385.163 L -211.206,-384.848 L -205.74,-384.543 L -200.29,-384.247 L -194.856,-383.959 L -189.437,-383.68 L -184.032,-383.41 L -178.641,-383.148 L -173.262,-382.894 L -167.896,-382.649 L -162.542,-382.411 L -157.199,-382.183 L -151.866,-381.962 L -146.542,-381.749 L -141.228,-381.545 L -135.923,-381.348 L -130.625,-381.16 L -125.335,-380.979 L -120.051,-380.807 L -114.774,-380.642 L -109.502,-380.485 L -104.235,-380.336 L -98.9731,-380.194 L -93.7149,-380.061 L -88.4601,-379.935 L -83.2082,-379.817 L -77.9587,-379.706 L -72.7109,-379.604 L -67.4644,-379.509 L -62.2187,-379.422 L -56.9731,-379.342 L -51.7271,-379.27 L -46.4802,-379.206 L -41.2319,-379.15 L -35.9817,-379.101 L -30.7289,-379.06 L -25.473,-379.027 L -20.2136,-379.001 L -14.95,-378.983 L -9.68166,-378.973 L -4.40806,-378.971 L 0.871372,-378.977 L 6.15722,-378.99 L 11.45,-379.012 L 16.7504,-379.041 L 22.059,-379.078 L 27.3763,-379.123 L 32.703,-379.177 L 38.0397,-379.238 L 43.3869,-379.308 L 48.7455,-379.386 L 54.1159,-379.472 L 59.4989,-379.566 L 64.8952,-379.669 L 70.3053,-379.78 L 75.7302,-379.9 L 81.1703,-380.028 L 86.6266,-380.165 L 92.0998,-380.311 L 97.5905,-380.465 L 103.1,-380.629 L 108.628,-380.801 L 114.177,-380.983 L 119.746,-381.174 L 125.338,-381.374 L 130.952,-381.584 L 136.59,-381.804 L 142.253,-382.033 L 147.941,-382.272 L 153.657,-382.521 L 159.4,-382.781 L 165.172,-383.05 L 170.974,-383.33 L 176.808,-383.621 L 182.675,-383.923 L 188.576,-384.236 L 194.512,-384.56 L 200.485,-384.896 L 206.496,-385.243 L 212.548,-385.603 L 218.641,-385.974 L 224.777,-386.359 L 230.959,-386.756 L 237.188,-387.166 L 243.466,-387.59 L 249.796,-388.027 L 256.179,-388.479 L 262.618,-388.945 L 269.115,-389.426 L 275.674,-389.922 L 282.296,-390.434 L 288.986,-390.963 L 295.746,-391.509 L 302.58,-392.072 L 309.491,-392.653 L 316.484,-393.252 L 323.562,-393.872 L 330.731,-394.511 L 337.995,-395.171 L 345.36,-395.854 L 352.831,-396.559 L 360.415,-397.288 L 368.119,-398.042 L 375.95,-398.823 L 383.917,-399.631 L 392.03,-400.469 L 400.298,-401.337 L 408.732,-402.239 L 417.347,-403.175 L 426.156,-404.149 L 435.175,-405.163 L 444.423,-406.22 L 453.922,-407.324 L 463.696,-408.478 L 473.774,-409.688 L 484.191,-410.96 L 494.987,-412.298 L 506.212,-413.713 L 517.925,-415.213 L 530.203,-416.811 L 543.144,-418.522 L 556.874,-420.368 L 571.569,-422.376 L 587.476,-424.585 L 604.968,-427.056 L 624.66,-429.887 L 647.697,-433.259 L 676.784,-437.6 L 724.025,-444.818 L 763.029,-448.666 Z" />
  <polyline points="713.499,-436.483 672.926,-430.319 645.536,-426.248 623.386,-423.017 604.271,-420.279 587.196,-417.873 571.612,-415.714 557.178,-413.747 543.665,-411.934 530.911,-410.251 518.795,-408.677 507.225,-407.198 496.13,-405.802 485.451,-404.479 475.141,-403.222 465.161,-402.025 455.478,-400.882 446.064,-399.789 436.895,-398.741 427.951,-397.735 419.214,-396.769 410.667,-395.84 402.296,-394.945 394.09,-394.082 386.037,-393.249 378.126,-392.446 370.349,-391.67 362.698,-390.919 355.165,-390.194 347.743,-389.491 340.427,-388.812 333.21,-388.154 326.087,-387.517 319.053,-386.899 312.103,-386.301 305.235,-385.721 298.443,-385.16 291.724,-384.615 285.074,-384.087 278.491,-383.575 271.972,-383.079 265.513,-382.598 259.112,-382.131 252.766,-381.679 246.474,-381.241 240.233,-380.817 234.04,-380.406 227.894,-380.008 221.793,-379.622 215.736,-379.249 209.719,-378.888 203.743,-378.539 197.804,-378.201 191.903,-377.875 186.037,-377.56 180.204,-377.256 174.404,-376.963 168.636,-376.68 162.898,-376.407 157.189,-376.145 151.507,-375.893 145.853,-375.651 140.224,-375.418 134.62,-375.196 129.039,-374.982 123.482,-374.778 117.946,-374.584 112.432,-374.398 106.937,-374.221 101.462,-374.054 96.0059,-373.895 90.5672,-373.745 85.1455,-373.603 79.7401,-373.47 74.3501,-373.346 68.975,-373.23 63.614,-373.122 58.2665,-373.023 52.9317,-372.931 47.609,-372.848 42.2979,-372.773 36.9976,-372.706 31.7075,-372.647 26.4271,-372.596 21.1558,-372.552 15.8928,-372.517 10.6378,-372.489 5.39012,-372.469 0.149159,-372.457 -5.08561,-372.453 -10.3147,-372.456 -15.5388,-372.467 -20.7582,-372.485 -25.9737,-372.511 -31.1856,-372.545 -36.3946,-372.586 -41.6012,-372.635 -46.8058,-372.691 -52.0091,-372.755 -57.2115,-372.826 -62.4135,-372.905 -67.6157,-372.992 -72.8186,-373.086 -78.0227,-373.187 -83.2286,-373.297 -88.4367,-373.413 -93.6475,-373.537 -98.8617,-373.669 -104.08,-373.809 -109.302,-373.956 -114.529,-374.111 -119.762,-374.273 -125.001,-374.443 -130.246,-374.621 -135.498,-374.807 -140.758,-375 -146.027,-375.201 -151.304,-375.41 -156.59,-375.628 -161.886,-375.853 -167.193,-376.086 -172.512,-376.327 -177.842,-376.576 -183.184,-376.834 -188.54,-377.1 -193.91,-377.374 -199.293,-377.657 -204.693,-377.948 -210.108,-378.247 -215.539,-378.556 -220.988,-378.873 -226.455,-379.198 -231.942,-379.533 -237.447,-379.877 -242.974,-380.23 -248.521,-380.592 -254.091,-380.964 -259.685,-381.345 -265.302,-381.735 -270.945,-382.136 -276.613,-382.546 -282.309,-382.967 -288.033,-383.397 -293.786,-383.838 -299.57,-384.29 -305.386,-384.752 -311.235,-385.225 -317.117,-385.71 -323.036,-386.205 -328.992,-386.712 -334.986,-387.231 -341.02,-387.762 -347.096,-388.305 -353.216,-388.861 -359.38,-389.43 -365.592,-390.012 -371.853,-390.607 -378.165,-391.216 -384.531,-391.84 -390.952,-392.477 -397.431,-393.13 -403.971,-393.799 -410.575,-394.483 -417.245,-395.183 -423.985,-395.9 -430.798,-396.635 -437.687,-397.388 -444.656,-398.159 -451.71,-398.95 -458.853,-399.761 -466.09,-400.593 -473.425,-401.446 -480.865,-402.322 -488.415,-403.222 -496.082,-404.147 -503.873,-405.098 -511.796,-406.076 -519.86,-407.083 -528.074,-408.12 -536.45,-409.189 -544.999,-410.293 -553.733,-411.433 -562.669,-412.612 -571.824,-413.832 -581.216,-415.098 -590.868,-416.412 -600.806,-417.779 -611.06,-419.204 -621.665,-420.692 -632.664,-422.251 -644.109,-423.889 -656.063,-425.617 -668.606,-427.447 -681.84,-429.396 -695.9,-431.485 -710.969,-433.745 -727.311,-436.218 -745.325,-438.967 -765.671,-442.098 -789.602,-445.81 -820.152,-450.585 " fill="none" stroke="#ef4444" stroke-width="30" stroke-linecap="round" />
</svg>
