<svg viewBox="0 0 800 600" xmlns="http://www.w3.org/2000/svg" style="background:#0b0e14">
  <g stroke="#222" stroke-width="1">
    <line x1="25.1621" y1="0" x2="25.1621" y2="600" />
    <line x1="59.3604" y1="0" x2="59.3604" y2="600" />
    <line x1="93.5586" y1="0" x2="93.5586" y2="600" />
    <line x1="127.757" y1="0" x2="127.757" y2="600" />
    <line x1="161.955" y1="0" x2="161.955" y2="600" />
    <line x1="196.153" y1="0" x2="196.153" y2="600" />
    <line x1="230.352" y1="0" x2="230.352" y2="600" />
    <line x1="264.55" y1="0" x2="264.55" y2="600" />
    <line x1="298.748" y1="0" x2="298.748" y2="600" />
    <line x1="332.946" y1="0" x2="332.946" y2="600" />
    <line x1="367.144" y1="0" x2="367.144" y2="600" />
    <line x1="401.343" y1="0" x2="401.343" y2="600" />
    <line x1="435.541" y1="0" x2="435.541" y2="600" />
    <line x1="469.739" y1="0" x2="469.739" y2="600" />
    <line x1="503.937" y1="0" x2="503.937" y2="600" />
    <line x1="538.136" y1="0" x2="538.136" y2="600" />
    <line x1="572.334" y1="0" x2="572.334" y2="600" />
    <line x1="606.532" y1="0" x2="606.532" y2="600" />
    <line x1="640.73" y1="0" x2="640.73" y2="600" />
    <line x1="674.929" y1="0" x2="674.929" y2="600" />
    <line x1="709.127" y1="0" x2="709.127" y2="600" />
    <line x1="743.325" y1="0" x2="743.325" y2="600" />
    <line x1="777.523" y1="0" x2="777.523" y2="600" />
    <line x1="811.721" y1="0" x2="811.721" y2="600" />
    <line x1="0" y1="590.092" x2="800" y2="590.092" />
    <line x1="0" y1="577.664" x2="800" y2="577.664" />
    <line x1="0" y1="565.236" x2="800" y2="565.236" />
    <line x1="0" y1="552.808" x2="800" y2="552.808" />
    <line x1="0" y1="540.38" x2="800" y2="540.38" />
    <line x1="0" y1="527.952" x2="800" y2="527.952" />
    <line x1="0" y1="515.524" x2="800" y2="515.524" />
    <line x1="0" y1="503.096" x2="800" y2="503.096" />
    <line x1="0" y1="490.668" x2="800" y2="490.668" />
    <line x1="0" y1="478.24" x2="800" y2="478.24" />
    <line x1="0" y1="465.812" x2="800" y2="465.812" />
    <line x1="0" y1="453.384" x2="800" y2="453.384" />
    <line x1="0" y1="440.956" x2="800" y2="440.956" />
    <line x1="0" y1="428.528" x2="800" y2="428.528" />
    <line x1="0" y1="416.1" x2="800" y2="416.1" />
    <line x1="0" y1="403.673" x2="800" y2="403.673" />
    <line x1="0" y1="391.245" x2="800" y2="391.245" />
    <line x1="0" y1="378.817" x2="800" y2="378.817" />
    <line x1="0" y1="366.389" x2="800" y2="366.389" />
    <line x1="0" y1="353.961" x2="800" y2="353.961" />
    <line x1="0" y1="341.533" x2="800" y2="341.533" />
    <line x1="0" y1="329.105" x2="800" y2="329.105" />
    <line x1="0" y1="316.677" x2="800" y2="316.677" />
    <line x1="0" y1="304.249" x2="800" y2="304.249" />
    <line x1="0" y1="291.821" x2="800" y2="291.821" />
    <line x1="0" y1="279.393" x2="800" y2="279.393" />
    <line x1="0" y1="266.965" x2="800" y2="266.965" />
    <line x1="0" y1="254.537" x2="800" y2="254.537" />
    <line x1="0" y1="242.109" x2="800" y2="242.109" />
    <line x1="0" y1="229.681" x2="800" y2="229.681" />
    <line x1="0" y1="217.253" x2="800" y2="217.253" />
    <line x1="0" y1="204.825" x2="800" y2="204.825" />
    <line x1="0" y1="192.397" x2="800" y2="192.397" />
    <line x1="0" y1="179.969" x2="800" y2="179.969" />
    <line x1="0" y1="167.541" x2="800" y2="167.541" />
    <line x1="0" y1="155.113" x2="800" y2="155.113" />
    <line x1="0" y1="142.685" x2="800" y2="142.685" />
    <line x1="0" y1="130.257" x2="800" y2="130.257" />
    <line x1="0" y1="117.829" x2="800" y2="117.829" />
    <line x1="0" y1="105.402" x2="800" y2="105.402" />
    <line x1="0" y1="92.9735" x2="800" y2="92.9735" />
    <line x1="0" y1="80.5456" x2="800" y2="80.5456" />
    <line x1="0" y1="68.1176" x2="800" y2="68.1176" />
    <line x1="0" y1="55.6897" x2="800" y2="55.6897" />
    <line x1="0" y1="43.2617" x2="800" y2="43.2617" />
    <line x1="0" y1="30.8337" x2="800" y2="30.8337" />
    <line x1="0" y1="18.4058" x2="800" y2="18.4058" />
    <line x1="0" y1="5.97783" x2="800" y2="5.97783" />
  </g>
  <path fill="#ff4444" fill-opacity="0.15" d="M 139.826,529.472 145.333,527.516 150.797,525.557 156.217,523.596 161.595,521.632 166.932,519.666 172.226,517.697 177.48,515.726 182.694,513.752 187.868,511.776 193.002,509.798 198.098,507.817 203.155,505.834 208.175,503.848 213.157,501.86 218.103,499.87 223.011,497.877 227.884,495.882 232.721,493.885 237.523,491.885 242.29,489.883 247.023,487.878 251.721,485.871 256.386,483.862 261.018,481.851 265.617,479.837 270.183,477.821 274.716,475.802 279.218,473.781 283.689,471.758 288.128,469.732 292.536,467.704 296.913,465.674 301.26,463.641 305.578,461.606 309.865,459.568 314.123,457.529 318.352,455.486 322.552,453.442 326.723,451.395 330.866,449.345 334.981,447.293 339.068,445.239 343.128,443.183 347.16,441.123 351.165,439.062 355.143,436.998 359.095,434.932 363.02,432.863 366.919,430.791 370.792,428.717 374.639,426.641 378.461,424.562 382.257,422.481 386.028,420.397 389.774,418.31 393.496,416.221 397.192,414.13 400.865,412.036 404.513,409.939 408.137,407.839 411.737,405.737 415.314,403.633 418.867,401.525 422.396,399.415 425.902,397.303 429.386,395.187 432.846,393.069 436.284,390.949 439.698,388.825 443.091,386.699 446.461,384.569 449.809,382.438 453.134,380.303 456.438,378.165 459.72,376.025 462.98,373.881 466.219,371.735 469.436,369.586 472.631,367.434 475.806,365.279 478.959,363.121 482.091,360.96 485.202,358.796 488.293,356.629 491.362,354.458 494.411,352.285 497.44,350.109 500.448,347.929 503.435,345.747 506.402,343.561 509.349,341.372 512.276,339.179 515.182,336.984 518.069,334.785 520.936,332.583 523.782,330.377 526.609,328.168 529.417,325.956 532.204,323.74 534.972,321.521 537.72,319.298 540.449,317.072 543.158,314.842 545.847,312.609 548.518,310.372 551.168,308.131 553.8,305.887 556.412,303.639 559.005,301.387 561.578,299.132 564.133,296.873 566.668,294.61 569.184,292.343 571.681,290.072 574.158,287.797 576.617,285.518 579.056,283.236 581.477,280.949 583.878,278.658 586.26,276.363 588.622,274.064 590.966,271.76 593.291,269.453 595.596,267.141 597.882,264.824 600.149,262.504 602.397,260.179 604.625,257.849 606.835,255.515 609.025,253.177 611.195,250.834 613.347,248.486 615.478,246.134 617.591,243.777 619.684,241.415 621.757,239.048 623.811,236.676 625.845,234.3 627.859,231.918 629.854,229.532 631.828,227.14 633.783,224.744 635.718,222.342 637.632,219.935 639.527,217.522 641.401,215.105 643.254,212.682 645.088,210.253 646.9,207.819 648.692,205.379 650.464,202.934 652.214,200.483 653.943,198.026 655.651,195.563 657.338,193.095 659.003,190.62 660.647,188.14 662.269,185.653 663.869,183.16 665.447,180.661 667.003,178.156 668.536,175.644 670.047,173.126 671.535,170.601 673.001,168.069 674.443,165.531 675.861,162.986 677.256,160.434 678.628,157.876 679.975,155.31 681.298,152.737 682.597,150.157 683.87,147.57 685.119,144.975 686.342,142.373 687.54,139.763 688.712,137.145 689.858,134.52 690.978,131.887 692.07,129.246 693.136,126.596 694.174,123.939 695.184,121.273 696.166,118.599 697.119,115.916 698.044,113.225 698.939,110.525 699.804,107.816 700.639,105.098 701.444,102.371 702.217,99.6342 702.959,96.8884 703.669,94.1331 704.346,91.3681 704.99,88.5932 705.6,85.8084 706.176,83.0135 706.717,80.2084 707.223,77.3928 707.692,74.5666 L 657.887,69.2308 L 657.609,72.0765 L 657.291,74.9113 L 656.933,77.7352 L 656.537,80.5486 L 656.103,83.3515 L 655.631,86.144 L 655.123,88.9265 L 654.579,91.6989 L 653.999,94.4614 L 653.384,97.2142 L 652.735,99.9575 L 652.052,102.691 L 651.336,105.416 L 650.586,108.131 L 649.805,110.837 L 648.992,113.535 L 648.147,116.223 L 647.272,118.903 L 646.366,121.574 L 645.429,124.237 L 644.463,126.892 L 643.468,129.538 L 642.444,132.176 L 641.391,134.806 L 640.31,137.428 L 639.201,140.043 L 638.065,142.65 L 636.901,145.249 L 635.71,147.84 L 634.493,150.424 L 633.249,153.001 L 631.979,155.571 L 630.683,158.133 L 629.362,160.689 L 628.015,163.237 L 626.643,165.779 L 625.246,168.313 L 623.825,170.841 L 622.379,173.363 L 620.909,175.877 L 619.415,178.385 L 617.898,180.887 L 616.356,183.383 L 614.791,185.872 L 613.203,188.355 L 611.592,190.832 L 609.958,193.303 L 608.301,195.767 L 606.621,198.226 L 604.919,200.679 L 603.195,203.127 L 601.448,205.568 L 599.679,208.004 L 597.889,210.434 L 596.076,212.859 L 594.242,215.278 L 592.386,217.692 L 590.509,220.1 L 588.61,222.503 L 586.69,224.901 L 584.748,227.293 L 582.786,229.681 L 580.802,232.063 L 578.797,234.44 L 576.772,236.813 L 574.726,239.18 L 572.658,241.542 L 570.57,243.9 L 568.462,246.253 L 566.333,248.601 L 564.183,250.944 L 562.013,253.283 L 559.822,255.617 L 557.611,257.946 L 555.379,260.271 L 553.127,262.592 L 550.855,264.908 L 548.562,267.22 L 546.249,269.527 L 543.916,271.83 L 541.562,274.129 L 539.188,276.423 L 536.794,278.713 L 534.38,280.999 L 531.945,283.281 L 529.49,285.559 L 527.015,287.833 L 524.52,290.103 L 522.004,292.369 L 519.468,294.631 L 516.911,296.889 L 514.335,299.143 L 511.738,301.393 L 509.12,303.64 L 506.482,305.883 L 503.824,308.122 L 501.145,310.357 L 498.446,312.589 L 495.726,314.817 L 492.986,317.041 L 490.225,319.262 L 487.443,321.479 L 484.64,323.693 L 481.817,325.903 L 478.972,328.11 L 476.107,330.313 L 473.221,332.513 L 470.313,334.71 L 467.385,336.903 L 464.435,339.093 L 461.464,341.279 L 458.472,343.463 L 455.458,345.643 L 452.423,347.819 L 449.366,349.993 L 446.287,352.163 L 443.186,354.33 L 440.064,356.494 L 436.919,358.655 L 433.753,360.813 L 430.564,362.968 L 427.353,365.119 L 424.119,367.268 L 420.863,369.414 L 417.584,371.556 L 414.282,373.696 L 410.958,375.833 L 407.61,377.966 L 404.239,380.097 L 400.845,382.225 L 397.427,384.35 L 393.986,386.472 L 390.521,388.592 L 387.032,390.708 L 383.519,392.822 L 379.981,394.933 L 376.42,397.041 L 372.834,399.146 L 369.223,401.249 L 365.587,403.349 L 361.926,405.446 L 358.239,407.54 L 354.528,409.632 L 350.79,411.721 L 347.027,413.807 L 343.238,415.891 L 339.423,417.972 L 335.581,420.05 L 331.712,422.126 L 327.817,424.199 L 323.895,426.27 L 319.945,428.338 L 315.968,430.403 L 311.963,432.466 L 307.93,434.526 L 303.868,436.584 L 299.778,438.639 L 295.66,440.691 L 291.512,442.741 L 287.335,444.789 L 283.129,446.834 L 278.892,448.876 L 274.626,450.916 L 270.329,452.954 L 266.002,454.989 L 261.643,457.021 L 257.253,459.051 L 252.831,461.078 L 248.378,463.103 L 243.892,465.126 L 239.374,467.146 L 234.822,469.163 L 230.237,471.178 L 225.619,473.191 L 220.966,475.201 L 216.279,477.208 L 211.557,479.214 L 206.8,481.216 L 202.007,483.216 L 197.179,485.214 L 192.313,487.209 L 187.411,489.201 L 182.472,491.191 L 177.495,493.179 L 172.479,495.164 L 167.425,497.146 L 162.332,499.126 L 157.199,501.104 L 152.025,503.079 L 146.811,505.051 L 141.556,507.021 L 136.259,508.988 L 130.92,510.952 L 125.537,512.914 L 120.111,514.873 L 114.641,516.83 L 109.127,518.784 L 103.567,520.735 L 97.9605,522.684 L 92.3077,524.63 Z" />
  <polyline points="115.232,530.769 120.855,528.82 126.434,526.869 131.967,524.915 137.456,522.958 142.901,520.999 148.303,519.037 153.663,517.073 158.98,515.106 164.256,513.137 169.491,511.165 174.686,509.191 179.841,507.214 184.957,505.235 190.034,503.253 195.072,501.269 200.073,499.283 205.036,497.294 209.962,495.302 214.851,493.309 219.704,491.312 224.522,489.314 229.304,487.313 234.052,485.309 238.765,483.304 243.443,481.296 248.088,479.285 252.7,477.272 257.279,475.257 261.825,473.239 266.338,471.219 270.82,469.196 275.27,467.171 279.688,465.144 284.076,463.114 288.433,461.082 292.759,459.048 297.056,457.011 301.322,454.971 305.559,452.929 309.767,450.885 313.946,448.839 318.096,446.789 322.217,444.738 326.311,442.684 330.376,440.627 334.414,438.568 338.424,436.507 342.407,434.443 346.364,432.377 350.293,430.308 354.196,428.236 358.072,426.162 361.923,424.086 365.747,422.007 369.546,419.925 373.32,417.841 377.068,415.754 380.791,413.664 384.489,411.572 388.162,409.478 391.811,407.381 395.435,405.281 399.035,403.178 402.612,401.073 406.164,398.965 409.693,396.854 413.198,394.741 416.679,392.625 420.138,390.506 423.573,388.384 426.986,386.259 430.375,384.132 433.742,382.002 437.087,379.869 440.409,377.733 443.709,375.595 446.986,373.453 450.242,371.308 453.475,369.161 456.687,367.011 459.878,364.857 463.046,362.701 466.193,360.541 469.319,358.379 472.424,356.213 475.507,354.045 478.569,351.873 481.611,349.698 484.631,347.52 487.631,345.339 490.61,343.154 493.568,340.967 496.506,338.776 499.423,336.581 502.32,334.384 505.196,332.183 508.053,329.979 510.889,327.771 513.705,325.56 516.5,323.346 519.276,321.128 522.032,318.906 524.768,316.681 527.484,314.453 530.18,312.22 532.856,309.985 535.512,307.745 538.149,305.502 540.766,303.255 543.364,301.005 545.942,298.75 548.5,296.492 551.039,294.23 553.558,291.964 556.057,289.694 558.537,287.42 560.998,285.143 563.438,282.861 565.86,280.575 568.262,278.285 570.644,275.991 573.007,273.692 575.35,271.39 577.674,269.083 579.979,266.772 582.263,264.457 584.528,262.137 586.774,259.813 589,257.484 591.206,255.151 593.393,252.813 595.56,250.47 597.707,248.123 599.834,245.772 601.941,243.415 604.029,241.054 606.096,238.688 608.144,236.317 610.171,233.941 612.179,231.56 614.166,229.174 616.133,226.783 618.079,224.387 620.005,221.986 621.911,219.579 623.795,217.167 625.66,214.75 627.503,212.327 629.325,209.899 631.127,207.465 632.907,205.026 634.666,202.581 636.403,200.13 638.12,197.673 639.814,195.211 641.487,192.743 643.138,190.269 644.766,187.788 646.373,185.302 647.957,182.809 649.519,180.31 651.057,177.805 652.573,175.293 654.066,172.775 655.536,170.25 656.982,167.719 658.404,165.181 659.803,162.636 661.177,160.084 662.527,157.525 663.853,154.959 665.153,152.386 666.429,149.806 667.679,147.219 668.903,144.624 670.102,142.021 671.275,139.411 672.42,136.793 673.54,134.168 674.632,131.534 675.696,128.893 676.733,126.243 677.742,123.585 678.722,120.919 679.673,118.244 680.595,115.561 681.487,112.869 682.349,110.169 683.181,107.459 683.981,104.74 684.75,102.013 685.487,99.2756 686.192,96.529 686.864,93.7729 687.502,91.0071 688.106,88.2314 688.676,85.4457 689.211,82.6499 689.709,79.8437 690.172,77.0271 " fill="none" stroke="#ff4444" stroke-width="2" />
  <circle cx="516.5" cy="323.346" r="4" fill="white" />
  <text x="524.5" y="327.346" fill="white" font-family="sans-serif" font-size="10">TCA</text>
  <circle cx="515.757" cy="323.936" r="4" fill="white" />
  <text x="523.757" y="327.936" fill="white" font-family="sans-serif" font-size="10">-1σ Time</text>
  <circle cx="517.243" cy="322.754" r="4" fill="white" />
  <text x="525.243" y="326.754" fill="white" font-family="sans-serif" font-size="10">+1σ Time</text>
  <rect x="20" y="20" width="250" height="80" rx="5" fill="#000" fill-opacity="0.7" />
  <text x="35" y="45" fill="white" font-family="sans-serif" font-size="14" font-weight="bold">AstDyn Occultation Map</text>
  <text x="35" y="65" fill="#ccc" font-family="sans-serif" font-size="12">Target: (50936) Nireus</text>
  <text x="35" y="83" fill="#f55" font-family="sans-serif" font-size="11">Uncertainty: ±1σ Corridor Shown</text>
</svg>
