<svg viewBox="-1800 -900 3600 1800" xmlns="http://www.w3.org/2000/svg" style="background:#0f172a">
  <g fill="#1e293b" fill-opacity="0.7" stroke="#334155" stroke-width="1" transform="scale(10, -10)">
    <path d="M -17,14 L -13,14 L -5,35 L 30,32 L 32,30 L 51,12 L 45,0 L 40,-15 L 34,-34 L 18,-35 L -10,-15 L -14,5 L -17,14 Z" />
    <path d="M -10,36 L 0,55 L 20,70 L 60,75 L 100,75 L 170,70 L 180,60 L 150,30 L 120,10 L 100,20 L 80,10 L 60,20 L 40,25 L 10,35 L -5,36 Z" />
    <path d="M -160,70 L -100,75 L -60,50 L -80,20 L -100,10 L -80,-10 L -40,-20 L -50,-55 L -70,-55 L -80,-15 L -110,10 L -160,60 Z" />
    <path d="M 113,-15 L 150,-15 L 150,-40 L 120,-40 L 113,-30 Z" />
  </g>
  <path fill="#06b6d4" fill-opacity="0.12" d="M 676.014,-0.000353978 675.262,-0.000353982 674.51,-0.000353986 673.758,-0.00035399 673.006,-0.000353994 672.254,-0.000353998 671.502,-0.000354002 670.75,-0.000354006 669.998,-0.00035401 669.245,-0.000354015 668.493,-0.000354019 667.741,-0.000354024 666.989,-0.000354029 666.237,-0.000354034 665.485,-0.000354039 664.733,-0.000354044 663.981,-0.000354049 663.229,-0.000354054 662.477,-0.00035406 661.725,-0.000354065 660.973,-0.000354071 660.221,-0.000354077 659.469,-0.000354083 658.717,-0.000354089 657.965,-0.000354095 657.213,-0.000354102 656.461,-0.000354109 655.709,-0.000354116 654.956,-0.000354123 654.204,-0.00035413 653.452,-0.000354137 652.7,-0.000354145 651.948,-0.000354153 651.196,-0.000354161 650.444,-0.00035417 649.692,-0.000354178 648.94,-0.000354187 648.188,-0.000354196 647.436,-0.000354206 646.684,-0.000354216 645.932,-0.000354226 645.18,-0.000354236 644.428,-0.000354247 643.676,-0.000354259 642.924,-0.00035427 642.172,-0.000354282 641.419,-0.000354295 640.667,-0.000354308 639.915,-0.000354321 639.163,-0.000354335 638.411,-0.00035435 637.659,-0.000354365 636.907,-0.000354381 636.155,-0.000354397 635.403,-0.000354414 634.651,-0.000354432 633.899,-0.000354451 633.147,-0.000354471 632.395,-0.000354491 631.643,-0.000354513 630.891,-0.000354536 630.139,-0.00035456 629.387,-0.000354585 628.635,-0.000354611 627.883,-0.000354639 627.13,-0.000354668 626.378,-0.0003547 625.626,-0.000354733 624.874,-0.000354768 624.122,-0.000354806 623.37,-0.000354845 622.618,-0.000354888 621.866,-0.000354934 621.114,-0.000354983 620.362,-0.000355036 619.61,-0.000355093 618.858,-0.000355155 618.106,-0.000355223 617.354,-0.000355296 616.602,-0.000355377 615.85,-0.000355465 615.098,-0.000355563 614.346,-0.000355672 613.594,-0.000355793 612.841,-0.00035593 612.089,-0.000356085 611.337,-0.000356262 610.585,-0.000356466 609.833,-0.000356704 609.081,-0.000356986 608.329,-0.000357324 607.577,-0.000357737 606.825,-0.000358253 606.073,-0.000358917 605.321,-0.000359802 604.569,-0.000361041 603.817,-0.0003629 603.065,-0.000365998 602.313,-0.000372193 601.561,-0.00039078 -299.192,-198.028 -1199.94,0.000316433 -1200.7,0.000335019 -1201.45,0.000341215 -1202.2,0.000344313 -1202.95,0.000346172 -1203.7,0.000347411 -1204.46,0.000348296 -1205.21,0.00034896 -1205.96,0.000349476 -1206.71,0.000349889 -1207.46,0.000350227 -1208.22,0.000350509 -1208.97,0.000350747 -1209.72,0.000350951 -1210.47,0.000351128 -1211.22,0.000351283 -1211.98,0.00035142 -1212.73,0.000351541 -1213.48,0.00035165 -1214.23,0.000351748 -1214.98,0.000351836 -1215.74,0.000351917 -1216.49,0.00035199 -1217.24,0.000352057 -1217.99,0.000352119 -1218.74,0.000352177 -1219.5,0.00035223 -1220.25,0.000352279 -1221,0.000352325 -1221.75,0.000352367 -1222.51,0.000352407 -1223.26,0.000352445 -1224.01,0.00035248 -1224.76,0.000352513 -1225.51,0.000352544 -1226.27,0.000352574 -1227.02,0.000352602 -1227.77,0.000352628 -1228.52,0.000352653 -1229.27,0.000352677 -1230.03,0.0003527 -1230.78,0.000352721 -1231.53,0.000352742 -1232.28,0.000352761 -1233.03,0.00035278 -1233.79,0.000352798 -1234.54,0.000352815 -1235.29,0.000352832 -1236.04,0.000352848 -1236.79,0.000352863 -1237.55,0.000352877 -1238.3,0.000352891 -1239.05,0.000352905 -1239.8,0.000352918 -1240.55,0.00035293 -1241.31,0.000352943 -1242.06,0.000352954 -1242.81,0.000352965 -1243.56,0.000352976 -1244.31,0.000352987 -1245.07,0.000352997 -1245.82,0.000353007 -1246.57,0.000353016 -1247.32,0.000353026 -1248.07,0.000353034 -1248.83,0.000353043 -1249.58,0.000353052 -1250.33,0.00035306 -1251.08,0.000353068 -1251.84,0.000353075 -1252.59,0.000353083 -1253.34,0.00035309 -1254.09,0.000353097 -1254.84,0.000353104 -1255.6,0.000353111 -1256.35,0.000353117 -1257.1,0.000353124 -1257.85,0.00035313 -1258.6,0.000353136 -1259.36,0.000353142 -1260.11,0.000353147 -1260.86,0.000353153 -1261.61,0.000353158 -1262.36,0.000353164 -1263.12,0.000353169 -1263.87,0.000353174 -1264.62,0.000353179 -1265.37,0.000353184 -1266.12,0.000353189 -1266.88,0.000353193 -1267.63,0.000353198 -1268.38,0.000353202 -1269.13,0.000353207 -1269.88,0.000353211 -1270.64,0.000353215 -1271.39,0.000353219 -1272.14,0.000353223 -1272.89,0.000353227 -1273.64,0.000353231 -1274.4,0.000353235 L -1274.4,0.000353177 L -1273.64,0.000353173 L -1272.89,0.000353168 L -1272.14,0.000353164 L -1271.39,0.000353159 L -1270.64,0.000353155 L -1269.88,0.00035315 L -1269.13,0.000353145 L -1268.38,0.00035314 L -1267.63,0.000353135 L -1266.88,0.000353129 L -1266.12,0.000353124 L -1265.37,0.000353119 L -1264.62,0.000353113 L -1263.87,0.000353107 L -1263.12,0.000353101 L -1262.36,0.000353095 L -1261.61,0.000353089 L -1260.86,0.000353083 L -1260.11,0.000353076 L -1259.36,0.00035307 L -1258.6,0.000353063 L -1257.85,0.000353056 L -1257.1,0.000353049 L -1256.35,0.000353042 L -1255.6,0.000353034 L -1254.84,0.000353026 L -1254.09,0.000353018 L -1253.34,0.00035301 L -1252.59,0.000353002 L -1251.84,0.000352993 L -1251.08,0.000352984 L -1250.33,0.000352975 L -1249.58,0.000352966 L -1248.83,0.000352956 L -1248.07,0.000352946 L -1247.32,0.000352936 L -1246.57,0.000352925 L -1245.82,0.000352914 L -1245.07,0.000352903 L -1244.31,0.000352891 L -1243.56,0.000352879 L -1242.81,0.000352866 L -1242.06,0.000352853 L -1241.31,0.00035284 L -1240.55,0.000352826 L -1239.8,0.000352812 L -1239.05,0.000352797 L -1238.3,0.000352781 L -1237.55,0.000352765 L -1236.79,0.000352748 L -1236.04,0.00035273 L -1235.29,0.000352712 L -1234.54,0.000352693 L -1233.79,0.000352673 L -1233.03,0.000352653 L -1232.28,0.000352631 L -1231.53,0.000352608 L -1230.78,0.000352584 L -1230.03,0.00035256 L -1229.27,0.000352533 L -1228.52,0.000352506 L -1227.77,0.000352477 L -1227.02,0.000352446 L -1226.27,0.000352414 L -1225.51,0.00035238 L -1224.76,0.000352344 L -1224.01,0.000352306 L -1223.26,0.000352265 L -1222.51,0.000352222 L -1221.75,0.000352176 L -1221,0.000352126 L -1220.25,0.000352074 L -1219.5,0.000352017 L -1218.74,0.000351956 L -1217.99,0.00035189 L -1217.24,0.000351818 L -1216.49,0.00035174 L -1215.74,0.000351656 L -1214.98,0.000351563 L -1214.23,0.00035146 L -1213.48,0.000351347 L -1212.73,0.000351222 L -1211.98,0.000351082 L -1211.22,0.000350924 L -1210.47,0.000350745 L -1209.72,0.000350541 L -1208.97,0.000350305 L -1208.22,0.00035003 L -1207.46,0.000349705 L -1206.71,0.000349314 L -1205.96,0.000348838 L -1205.21,0.000348242 L -1204.46,0.000347475 L -1203.7,0.000346453 L -1202.95,0.000345023 L -1202.2,0.000342877 L -1201.45,0.0003393 L -1200.7,0.000332147 L -1199.94,0.000310688 L -299.192,-256.37 L 601.561,-0.000396525 L 602.313,-0.000375066 L 603.065,-0.000367913 L 603.817,-0.000364336 L 604.569,-0.00036219 L 605.321,-0.000360759 L 606.073,-0.000359738 L 606.825,-0.000358971 L 607.577,-0.000358375 L 608.329,-0.000357898 L 609.081,-0.000357508 L 609.833,-0.000357183 L 610.585,-0.000356908 L 611.337,-0.000356672 L 612.089,-0.000356468 L 612.841,-0.000356289 L 613.594,-0.000356131 L 614.346,-0.000355991 L 615.098,-0.000355865 L 615.85,-0.000355752 L 616.602,-0.00035565 L 617.354,-0.000355557 L 618.106,-0.000355472 L 618.858,-0.000355395 L 619.61,-0.000355323 L 620.362,-0.000355257 L 621.114,-0.000355196 L 621.866,-0.000355139 L 622.618,-0.000355086 L 623.37,-0.000355037 L 624.122,-0.000354991 L 624.874,-0.000354948 L 625.626,-0.000354907 L 626.378,-0.000354869 L 627.13,-0.000354833 L 627.883,-0.000354799 L 628.635,-0.000354766 L 629.387,-0.000354736 L 630.139,-0.000354707 L 630.891,-0.000354679 L 631.643,-0.000354653 L 632.395,-0.000354628 L 633.147,-0.000354604 L 633.899,-0.000354582 L 634.651,-0.00035456 L 635.403,-0.000354539 L 636.155,-0.00035452 L 636.907,-0.0003545 L 637.659,-0.000354482 L 638.411,-0.000354465 L 639.163,-0.000354448 L 639.915,-0.000354432 L 640.667,-0.000354416 L 641.419,-0.000354401 L 642.172,-0.000354387 L 642.924,-0.000354373 L 643.676,-0.000354359 L 644.428,-0.000354346 L 645.18,-0.000354334 L 645.932,-0.000354322 L 646.684,-0.00035431 L 647.436,-0.000354299 L 648.188,-0.000354288 L 648.94,-0.000354277 L 649.692,-0.000354267 L 650.444,-0.000354257 L 651.196,-0.000354247 L 651.948,-0.000354238 L 652.7,-0.000354228 L 653.452,-0.000354219 L 654.204,-0.000354211 L 654.956,-0.000354202 L 655.709,-0.000354194 L 656.461,-0.000354186 L 657.213,-0.000354179 L 657.965,-0.000354171 L 658.717,-0.000354164 L 659.469,-0.000354157 L 660.221,-0.00035415 L 660.973,-0.000354143 L 661.725,-0.000354136 L 662.477,-0.00035413 L 663.229,-0.000354123 L 663.981,-0.000354117 L 664.733,-0.000354111 L 665.485,-0.000354105 L 666.237,-0.0003541 L 666.989,-0.000354094 L 667.741,-0.000354089 L 668.493,-0.000354083 L 669.245,-0.000354078 L 669.998,-0.000354073 L 670.75,-0.000354068 L 671.502,-0.000354063 L 672.254,-0.000354058 L 673.006,-0.000354053 L 673.758,-0.000354049 L 674.51,-0.000354044 L 675.262,-0.00035404 L 676.014,-0.000354036 Z" />
  <polyline points="676.014,-0.000354007 675.262,-0.000354011 674.51,-0.000354015 673.758,-0.000354019 673.006,-0.000354024 672.254,-0.000354028 671.502,-0.000354032 670.75,-0.000354037 669.998,-0.000354042 669.245,-0.000354046 668.493,-0.000354051 667.741,-0.000354056 666.989,-0.000354061 666.237,-0.000354067 665.485,-0.000354072 664.733,-0.000354077 663.981,-0.000354083 663.229,-0.000354089 662.477,-0.000354095 661.725,-0.000354101 660.973,-0.000354107 660.221,-0.000354113 659.469,-0.00035412 658.717,-0.000354126 657.965,-0.000354133 657.213,-0.00035414 656.461,-0.000354148 655.709,-0.000354155 654.956,-0.000354163 654.204,-0.00035417 653.452,-0.000354178 652.7,-0.000354187 651.948,-0.000354195 651.196,-0.000354204 650.444,-0.000354213 649.692,-0.000354222 648.94,-0.000354232 648.188,-0.000354242 647.436,-0.000354252 646.684,-0.000354263 645.932,-0.000354274 645.18,-0.000354285 644.428,-0.000354297 643.676,-0.000354309 642.924,-0.000354321 642.172,-0.000354334 641.419,-0.000354348 640.667,-0.000354362 639.915,-0.000354376 639.163,-0.000354392 638.411,-0.000354407 637.659,-0.000354424 636.907,-0.000354441 636.155,-0.000354458 635.403,-0.000354477 634.651,-0.000354496 633.899,-0.000354516 633.147,-0.000354538 632.395,-0.00035456 631.643,-0.000354583 630.891,-0.000354608 630.139,-0.000354633 629.387,-0.00035466 628.635,-0.000354689 627.883,-0.000354719 627.13,-0.000354751 626.378,-0.000354784 625.626,-0.00035482 624.874,-0.000354858 624.122,-0.000354898 623.37,-0.000354941 622.618,-0.000354987 621.866,-0.000355037 621.114,-0.00035509 620.362,-0.000355147 619.61,-0.000355208 618.858,-0.000355275 618.106,-0.000355347 617.354,-0.000355427 616.602,-0.000355513 615.85,-0.000355609 615.098,-0.000355714 614.346,-0.000355831 613.594,-0.000355962 612.841,-0.000356109 612.089,-0.000356276 611.337,-0.000356467 610.585,-0.000356687 609.833,-0.000356944 609.081,-0.000357247 608.329,-0.000357611 607.577,-0.000358056 606.825,-0.000358612 606.073,-0.000359327 605.321,-0.000360281 604.569,-0.000361616 603.817,-0.000363618 603.065,-0.000366955 602.313,-0.000373629 601.561,-0.000393653 -299.192,-226.672 -1199.94,0.00031356 -1200.7,0.000333583 -1201.45,0.000340258 -1202.2,0.000343595 -1202.95,0.000345597 -1203.7,0.000346932 -1204.46,0.000347885 -1205.21,0.000348601 -1205.96,0.000349157 -1206.71,0.000349602 -1207.46,0.000349966 -1208.22,0.000350269 -1208.97,0.000350526 -1209.72,0.000350746 -1210.47,0.000350937 -1211.22,0.000351103 -1211.98,0.000351251 -1212.73,0.000351382 -1213.48,0.000351499 -1214.23,0.000351604 -1214.98,0.000351699 -1215.74,0.000351786 -1216.49,0.000351865 -1217.24,0.000351938 -1217.99,0.000352005 -1218.74,0.000352066 -1219.5,0.000352123 -1220.25,0.000352176 -1221,0.000352225 -1221.75,0.000352271 -1222.51,0.000352315 -1223.26,0.000352355 -1224.01,0.000352393 -1224.76,0.000352429 -1225.51,0.000352462 -1226.27,0.000352494 -1227.02,0.000352524 -1227.77,0.000352553 -1228.52,0.00035258 -1229.27,0.000352605 -1230.03,0.00035263 -1230.78,0.000352653 -1231.53,0.000352675 -1232.28,0.000352696 -1233.03,0.000352716 -1233.79,0.000352736 -1234.54,0.000352754 -1235.29,0.000352772 -1236.04,0.000352789 -1236.79,0.000352805 -1237.55,0.000352821 -1238.3,0.000352836 -1239.05,0.000352851 -1239.8,0.000352865 -1240.55,0.000352878 -1241.31,0.000352891 -1242.06,0.000352904 -1242.81,0.000352916 -1243.56,0.000352928 -1244.31,0.000352939 -1245.07,0.00035295 -1245.82,0.00035296 -1246.57,0.000352971 -1247.32,0.000352981 -1248.07,0.00035299 -1248.83,0.000353 -1249.58,0.000353009 -1250.33,0.000353017 -1251.08,0.000353026 -1251.84,0.000353034 -1252.59,0.000353042 -1253.34,0.00035305 -1254.09,0.000353058 -1254.84,0.000353065 -1255.6,0.000353072 -1256.35,0.000353079 -1257.1,0.000353086 -1257.85,0.000353093 -1258.6,0.000353099 -1259.36,0.000353106 -1260.11,0.000353112 -1260.86,0.000353118 -1261.61,0.000353124 -1262.36,0.00035313 -1263.12,0.000353135 -1263.87,0.000353141 -1264.62,0.000353146 -1265.37,0.000353151 -1266.12,0.000353156 -1266.88,0.000353161 -1267.63,0.000353166 -1268.38,0.000353171 -1269.13,0.000353176 -1269.88,0.00035318 -1270.64,0.000353185 -1271.39,0.000353189 -1272.14,0.000353194 -1272.89,0.000353198 -1273.64,0.000353202 -1274.4,0.000353206 " fill="none" stroke="#06b6d4" stroke-width="30" stroke-linecap="round" />
  <path fill="#ef4444" fill-opacity="0.12" d="M -1159.8,155.265 -1160.48,154.985 -1161.16,154.698 -1161.84,154.406 -1162.52,154.107 -1163.2,153.802 -1163.88,153.491 -1164.55,153.173 -1165.23,152.848 -1165.9,152.516 -1166.57,152.177 -1167.24,151.83 -1167.9,151.475 -1168.57,151.113 -1169.23,150.741 -1169.89,150.361 -1170.55,149.972 -1171.2,149.574 -1171.86,149.166 -1172.51,148.748 -1173.16,148.319 -1173.8,147.88 -1174.45,147.429 -1175.09,146.967 -1175.73,146.492 -1176.36,146.005 -1176.99,145.505 -1177.62,144.992 -1178.25,144.464 -1178.87,143.921 -1179.49,143.363 -1180.1,142.788 -1180.71,142.197 -1181.32,141.589 -1181.92,140.962 -1182.52,140.315 -1183.11,139.649 -1183.7,138.962 -1184.28,138.253 -1184.86,137.52 -1185.43,136.763 -1185.99,135.981 -1186.55,135.172 -1187.11,134.335 -1187.65,133.468 -1188.19,132.57 -1188.72,131.638 -1189.24,130.672 -1189.76,129.669 -1190.26,128.627 -1190.76,127.544 -1191.24,126.417 -1191.72,125.243 -1192.18,124.02 -1192.63,122.745 -1193.07,121.413 -1193.5,120.022 -1193.91,118.566 -1194.3,117.043 -1194.68,115.445 -1195.04,113.769 -1195.38,112.009 -1195.7,110.157 -1195.99,108.207 -1196.27,106.15 -1196.51,103.978 -1196.73,101.681 -1196.92,99.2477 -1197.07,96.6654 -1197.19,93.9205 -1197.27,90.9972 -1197.3,87.8778 -1197.28,84.5419 -1197.21,80.9667 -1197.09,77.1256 -1196.89,72.9883 -1196.62,68.5197 -1196.27,63.679 -1195.83,58.4185 -1195.28,52.6823 -1194.61,46.4042 -1193.8,39.5055 -1192.83,31.8918 -1191.68,23.4494 -1190.32,14.0399 -1188.7,3.49346 -1186.77,-8.39988 -1184.49,-21.9023 -1181.76,-37.344 -1178.48,-55.1449 -1174.52,-75.8432 -1169.67,-100.134 -1163.68,-128.917 -1156.14,-163.354 -1146.48,-204.926 -906.258,-184.347 -778.372,-187.075 -679.392,-198.661 -592.729,-215.395 -512.217,-236.148 -434.306,-260.587 -356.168,-288.831 -274.759,-321.426 -185.698,-359.568 -80.5396,-405.873 65.5203,-467.853 399.173,-563.148 426.002,-523.684 444.573,-490.611 458.081,-462.765 468.274,-439.146 476.181,-418.946 482.448,-401.524 487.498,-386.379 491.623,-373.112 495.025,-361.409 497.856,-351.019 500.224,-341.739 502.214,-333.405 503.89,-325.884 505.303,-319.064 506.494,-312.853 507.496,-307.176 508.334,-301.967 509.03,-297.171 509.603,-292.743 510.068,-288.641 510.437,-284.831 510.721,-281.284 510.93,-277.973 511.072,-274.877 511.152,-271.974 511.178,-269.248 511.155,-266.683 511.086,-264.265 510.977,-261.982 510.83,-259.823 510.65,-257.779 510.437,-255.84 510.196,-253.998 509.929,-252.247 509.637,-250.58 509.322,-248.991 508.986,-247.475 508.63,-246.027 508.256,-244.642 507.866,-243.317 507.459,-242.047 507.037,-240.829 506.602,-239.661 506.153,-238.539 505.692,-237.46 505.219,-236.422 504.736,-235.424 504.243,-234.461 503.739,-233.534 503.227,-232.639 502.706,-231.775 502.177,-230.941 501.64,-230.135 501.095,-229.356 500.544,-228.601 499.986,-227.871 499.421,-227.164 498.851,-226.479 498.275,-225.815 497.694,-225.171 497.107,-224.546 496.515,-223.939 495.919,-223.35 495.318,-222.778 494.712,-222.221 494.103,-221.68 493.489,-221.154 492.872,-220.641 492.251,-220.143 491.626,-219.657 490.998,-219.184 490.367,-218.723 489.733,-218.274 489.095,-217.836 488.455,-217.408 487.812,-216.991 487.167,-216.584 486.518,-216.187 485.868,-215.799 485.215,-215.419 484.559,-215.049 483.901,-214.687 483.242,-214.333 482.58,-213.987 481.916,-213.649 481.25,-213.317 480.582,-212.993 479.912,-212.676 479.241,-212.366 478.568,-212.061 477.893,-211.764 477.217,-211.472 476.539,-211.186 475.86,-210.906 L 476.769,-207.388 L 477.458,-207.633 L 478.146,-207.883 L 478.832,-208.138 L 479.517,-208.398 L 480.2,-208.664 L 480.882,-208.936 L 481.562,-209.213 L 482.241,-209.496 L 482.918,-209.785 L 483.594,-210.081 L 484.268,-210.384 L 484.939,-210.693 L 485.609,-211.01 L 486.278,-211.333 L 486.944,-211.665 L 487.608,-212.004 L 488.269,-212.351 L 488.929,-212.707 L 489.586,-213.072 L 490.241,-213.445 L 490.894,-213.829 L 491.543,-214.221 L 492.19,-214.624 L 492.835,-215.038 L 493.476,-215.463 L 494.114,-215.899 L 494.749,-216.347 L 495.381,-216.807 L 496.009,-217.28 L 496.634,-217.767 L 497.255,-218.267 L 497.872,-218.783 L 498.485,-219.313 L 499.093,-219.86 L 499.698,-220.423 L 500.297,-221.004 L 500.891,-221.604 L 501.48,-222.222 L 502.064,-222.861 L 502.642,-223.52 L 503.214,-224.202 L 503.78,-224.908 L 504.339,-225.638 L 504.89,-226.393 L 505.435,-227.177 L 505.971,-227.988 L 506.499,-228.831 L 507.018,-229.705 L 507.528,-230.614 L 508.028,-231.558 L 508.517,-232.541 L 508.996,-233.564 L 509.462,-234.63 L 509.915,-235.742 L 510.354,-236.904 L 510.779,-238.117 L 511.188,-239.386 L 511.58,-240.715 L 511.955,-242.108 L 512.309,-243.569 L 512.642,-245.105 L 512.953,-246.72 L 513.239,-248.421 L 513.497,-250.215 L 513.727,-252.11 L 513.924,-254.115 L 514.087,-256.238 L 514.211,-258.492 L 514.292,-260.888 L 514.327,-263.44 L 514.31,-266.164 L 514.235,-269.078 L 514.095,-272.202 L 513.884,-275.558 L 513.59,-279.175 L 513.205,-283.083 L 512.714,-287.318 L 512.103,-291.923 L 511.354,-296.948 L 510.443,-302.451 L 509.344,-308.503 L 508.023,-315.188 L 506.438,-322.61 L 504.534,-330.893 L 502.241,-340.191 L 499.469,-350.698 L 496.094,-362.654 L 491.947,-376.367 L 486.792,-392.23 L 480.281,-410.755 L 471.894,-432.61 L 460.799,-458.674 L 445.602,-490.099 L 242.415,-464.744 L 38.3342,-387.85 L -81.0047,-337.068 L -175.792,-296.151 L -259.157,-261.268 L -336.757,-230.8 L -411.885,-203.948 L -486.974,-180.341 L -564.316,-159.911 L -646.684,-142.91 L -738.44,-130.106 L -849.036,-123.575 L -1018.72,-132.633 L -1164.54,-128.455 L -1171.39,-95.9753 L -1176.79,-69.1855 L -1181.12,-46.8095 L -1184.64,-27.8978 L -1187.53,-11.7393 L -1189.91,2.20392 L -1191.89,14.3435 L -1193.53,24.9985 L -1194.91,34.4188 L -1196.05,42.8027 L -1196.99,50.3089 L -1197.78,57.0661 L -1198.41,63.1793 L -1198.93,68.735 L -1199.33,73.8053 L -1199.65,78.4502 L -1199.87,82.7206 L -1200.03,86.6596 L -1200.11,90.304 L -1200.14,93.6853 L -1200.12,96.8308 L -1200.05,99.7641 L -1199.93,102.506 L -1199.78,105.074 L -1199.59,107.485 L -1199.36,109.752 L -1199.11,111.888 L -1198.83,113.903 L -1198.52,115.809 L -1198.19,117.612 L -1197.84,119.322 L -1197.47,120.945 L -1197.09,122.488 L -1196.68,123.956 L -1196.26,125.356 L -1195.82,126.691 L -1195.37,127.965 L -1194.91,129.184 L -1194.43,130.35 L -1193.95,131.467 L -1193.45,132.537 L -1192.94,133.564 L -1192.42,134.551 L -1191.9,135.499 L -1191.36,136.411 L -1190.82,137.288 L -1190.27,138.134 L -1189.71,138.948 L -1189.15,139.734 L -1188.58,140.492 L -1188,141.225 L -1187.42,141.932 L -1186.83,142.617 L -1186.24,143.278 L -1185.64,143.919 L -1185.03,144.539 L -1184.43,145.14 L -1183.81,145.723 L -1183.2,146.288 L -1182.58,146.836 L -1181.95,147.368 L -1181.33,147.885 L -1180.7,148.387 L -1180.06,148.875 L -1179.42,149.35 L -1178.78,149.811 L -1178.14,150.26 L -1177.49,150.697 L -1176.84,151.123 L -1176.19,151.537 L -1175.54,151.941 L -1174.88,152.335 L -1174.22,152.719 L -1173.56,153.094 L -1172.9,153.459 L -1172.23,153.816 L -1171.56,154.164 L -1170.89,154.504 L -1170.22,154.836 L -1169.55,155.161 L -1168.87,155.478 L -1168.2,155.788 L -1167.52,156.091 L -1166.84,156.387 L -1166.16,156.677 L -1165.47,156.961 L -1164.79,157.239 L -1164.1,157.511 L -1163.42,157.777 L -1162.73,158.038 L -1162.04,158.294 L -1161.35,158.544 L -1160.65,158.789 Z" />
  <polyline points="-1160.22,157.027 -1160.91,156.764 -1161.6,156.496 -1162.29,156.222 -1162.97,155.942 -1163.65,155.656 -1164.33,155.365 -1165.01,155.067 -1165.69,154.763 -1166.37,154.452 -1167.04,154.134 -1167.72,153.809 -1168.39,153.476 -1169.06,153.136 -1169.73,152.788 -1170.39,152.432 -1171.06,152.068 -1171.72,151.694 -1172.38,151.312 -1173.03,150.92 -1173.69,150.519 -1174.34,150.107 -1174.99,149.685 -1175.64,149.252 -1176.28,148.807 -1176.93,148.351 -1177.57,147.882 -1178.2,147.401 -1178.83,146.906 -1179.46,146.397 -1180.09,145.874 -1180.71,145.336 -1181.33,144.782 -1181.95,144.212 -1182.56,143.624 -1183.16,143.018 -1183.77,142.394 -1184.36,141.75 -1184.96,141.085 -1185.55,140.398 -1186.13,139.689 -1186.7,138.956 -1187.28,138.197 -1187.84,137.412 -1188.4,136.6 -1188.95,135.757 -1189.49,134.884 -1190.03,133.979 -1190.56,133.038 -1191.08,132.061 -1191.59,131.046 -1192.09,129.989 -1192.58,128.888 -1193.06,127.741 -1193.53,126.545 -1193.99,125.296 -1194.43,123.991 -1194.86,122.625 -1195.28,121.196 -1195.68,119.697 -1196.06,118.125 -1196.42,116.473 -1196.77,114.735 -1197.09,112.905 -1197.39,110.974 -1197.67,108.935 -1197.92,106.778 -1198.14,104.493 -1198.33,102.068 -1198.48,99.4892 -1198.59,96.7426 -1198.67,93.811 -1198.7,90.6754 -1198.67,87.3137 -1198.59,83.7011 -1198.45,79.8086 -1198.24,75.6029 -1197.95,71.045 -1197.57,66.0897 -1197.09,60.6833 -1196.5,54.7626 -1195.78,48.2521 -1194.9,41.0612 -1193.85,33.0802 -1192.6,24.1752 -1191.1,14.1816 -1189.31,2.89452 -1187.18,-9.94285 -1184.62,-24.6563 -1181.53,-41.6632 -1177.79,-61.5039 -1173.19,-84.8841 -1167.49,-112.733 -1160.29,-146.273 -1102.44,-175.463 -874.36,-152.98 -756.848,-157.993 -662.002,-170.279 -577.749,-187.167 -498.993,-207.745 -422.629,-231.728 -346.133,-259.207 -266.803,-290.627 -180.885,-326.954 -81.5903,-370.207 48.445,-425.55 357.317,-531.674 435.949,-507.282 452.793,-474.946 465.069,-447.925 474.341,-425.138 481.537,-405.738 487.239,-389.067 491.831,-374.616 495.575,-361.988 498.659,-350.869 501.217,-341.014 503.35,-332.224 505.135,-324.339 506.632,-317.23 507.887,-310.789 508.936,-304.928 509.81,-299.574 510.534,-294.664 511.127,-290.146 511.605,-285.976 511.984,-282.115 512.273,-278.53 512.485,-275.193 512.626,-272.08 512.705,-269.169 512.728,-266.44 512.699,-263.878 512.625,-261.468 512.51,-259.197 512.356,-257.053 512.168,-255.025 511.948,-253.105 511.699,-251.285 511.423,-249.556 511.122,-247.913 510.799,-246.348 510.454,-244.857 510.09,-243.434 509.707,-242.075 509.308,-240.776 508.892,-239.532 508.462,-238.341 508.018,-237.199 507.562,-236.103 507.092,-235.051 506.612,-234.039 506.121,-233.066 505.619,-232.129 505.108,-231.227 504.589,-230.357 504.06,-229.518 503.524,-228.708 502.98,-227.926 502.428,-227.17 501.87,-226.439 501.305,-225.732 500.734,-225.048 500.158,-224.385 499.575,-223.743 498.987,-223.12 498.395,-222.517 497.797,-221.931 497.195,-221.362 496.588,-220.81 495.977,-220.273 495.362,-219.751 494.743,-219.244 494.12,-218.751 493.494,-218.271 492.864,-217.803 492.231,-217.348 491.595,-216.905 490.956,-216.473 490.314,-216.052 489.669,-215.641 489.022,-215.241 488.371,-214.85 487.719,-214.468 487.064,-214.096 486.406,-213.732 485.747,-213.377 485.085,-213.03 484.421,-212.691 483.755,-212.359 483.087,-212.035 482.418,-211.717 481.746,-211.407 481.073,-211.103 480.398,-210.806 479.721,-210.515 479.043,-210.23 478.363,-209.951 477.682,-209.678 476.999,-209.41 476.315,-209.147 " fill="none" stroke="#ef4444" stroke-width="30" stroke-linecap="round" />
</svg>
